<?xml version="1.0" encoding="utf-8"?>
<!-- Generator: Adobe Illustrator 24.2.0, SVG Export Plug-In . SVG Version: 6.00 Build 0)  -->
<svg version="1.1" id="Layer_1" xmlns="http://www.w3.org/2000/svg" xmlns:xlink="http://www.w3.org/1999/xlink" x="0px" y="0px"
	 viewBox="0 0 24 24" style="enable-background:new 0 0 24 24;" xml:space="preserve">
<style type="text/css">
	.st0{fill:none;}
	.st1{fill:#BCB6BC;}
</style>
<path class="st0" d="M0,0h24v24H0V0z"/>
<g>
	<path class="st0" d="M12,5c-1.7,0-3,1.3-3,3s1.3,3,3,3c0.1,0,0.1,0,0.1,0l2.7-4C14.4,5.8,13.3,5,12,5z"/>
	<path class="st0" d="M12,19.2c2.5,0,4.7-1.3,6-3.2c0-1.7-3.1-2.8-5.2-3l-3.8,5.6C10,19,11,19.2,12,19.2z"/>
	<path class="st0" d="M6,16c0.4,0.7,1,1.2,1.6,1.7l3.2-4.7C8.7,13.3,6,14.3,6,16z"/>
	<path class="st1" d="M6,16c0-1.6,2.7-2.7,4.8-3l1.4-2c-0.1,0-0.1,0-0.1,0c-1.7,0-3-1.3-3-3s1.3-3,3-3c1.3,0,2.4,0.8,2.8,2l2.4-3.5
		C15.7,2.5,13.9,2,12,2C6.5,2,2,6.5,2,12c0,3.3,1.6,6.2,4.1,8l1.6-2.3C7,17.2,6.4,16.6,6,16z"/>
	<path class="st1" d="M18.5,4.4L12.8,13c2.1,0.2,5.1,1.3,5.2,3c-1.3,1.9-3.5,3.2-6,3.2c-1,0-2-0.2-2.9-0.6l-1.6,2.4
		C8.8,21.6,10.4,22,12,22c5.5,0,10-4.5,10-10C22,9,20.7,6.3,18.5,4.4z"/>
</g>
</svg>
