<?xml version="1.0" encoding="utf-8"?>
<!-- Generator: Adobe Illustrator 24.2.0, SVG Export Plug-In . SVG Version: 6.00 Build 0)  -->
<svg version="1.1" id="Layer_1" xmlns="http://www.w3.org/2000/svg" xmlns:xlink="http://www.w3.org/1999/xlink" x="0px" y="0px"
	 viewBox="0 0 24 24" style="enable-background:new 0 0 24 24;" xml:space="preserve">
<style type="text/css">
	.st0{fill:none;}
</style>
<path class="st0" d="M0,0h24v24H0V0z"/>
<g>
	<circle class="st0" cx="12" cy="9.5" r="1.5"/>
	<path class="st0" d="M10.7,12.7c-1.3-0.5-2.2-1.8-2.2-3.2C8.5,7.6,10.1,6,12,6c1.7,0,3.2,1.3,3.4,2.9l2.7-2.1C16.6,5.1,14.4,4,12,4
		c-4.4,0-8,3.6-8,8c0,1.8,0.6,3.5,1.6,4.7L10.7,12.7z"/>
	<path class="st0" d="M12,16.5c-1.9,0-4.5,0.9-4.9,1.8c1.3,1.1,3,1.7,4.9,1.7s3.6-0.6,4.9-1.7C16.5,17.4,13.9,16.5,12,16.5z"/>
	<path class="st0" d="M18.6,7.4l-3.1,2.4C15.3,11.6,13.8,13,12,13c-0.1,0-0.3,0-0.4,0l-2.5,2c1.1-0.3,2.2-0.4,2.9-0.4
		c1.5,0,4.9,0.6,6.4,2.3c1-1.3,1.6-3,1.6-4.8C20,10.3,19.5,8.7,18.6,7.4z"/>
	<path d="M12,3.4c-4.7,0-8.6,3.8-8.6,8.6c0,4.7,3.8,8.6,8.6,8.6c4.7,0,8.6-3.8,8.6-8.6C20.6,7.3,16.7,3.4,12,3.4z M12,4
		c2.4,0,4.6,1.1,6.1,2.8l-2.7,2.1C15.2,7.3,13.7,6,12,6c-1.9,0-3.5,1.6-3.5,3.5c0,1.4,0.9,2.7,2.2,3.2l-5.1,4c-1-1.3-1.6-3-1.6-4.7
		C4,7.6,7.6,4,12,4z M10.5,9.5C10.5,8.7,11.2,8,12,8s1.5,0.7,1.5,1.5S12.8,11,12,11S10.5,10.3,10.5,9.5z M12,20
		c-1.9,0-3.6-0.6-4.9-1.7c0.4-0.9,3-1.8,4.9-1.8s4.5,0.9,4.9,1.8C15.6,19.4,13.9,20,12,20z M12,14.5c-0.7,0-1.8,0.1-2.9,0.4l2.5-2
		c0.1,0,0.3,0,0.4,0c1.8,0,3.3-1.4,3.5-3.1l3.1-2.4C19.5,8.7,20,10.3,20,12c0,1.8-0.6,3.5-1.6,4.8C16.9,15.1,13.5,14.5,12,14.5z"/>
</g>
</svg>
