<?xml version="1.0" encoding="utf-8"?>
<!-- Generator: Adobe Illustrator 24.0.2, SVG Export Plug-In . SVG Version: 6.00 Build 0)  -->
<svg version="1.1" id="Layer_1" xmlns="http://www.w3.org/2000/svg" xmlns:xlink="http://www.w3.org/1999/xlink" x="0px" y="0px"
	 viewBox="0 0 24 24" style="enable-background:new 0 0 24 24;" xml:space="preserve">
<style type="text/css">
	.st0{fill:none;}
	.st1{fill:#FF0000;}
</style>
<g>
	<path class="st0" d="M5.6,16.8C5.6,16.8,5.6,16.8,5.6,16.8c1.5-1.7,4.9-2.3,6.4-2.3C10.5,14.5,7.1,15.1,5.6,16.8z"/>
	<circle class="st0" cx="12" cy="9.5" r="1.5"/>
	<path class="st0" d="M12,16.5c-1.9,0-4.4,0.9-4.9,1.8c1.3,1.1,3,1.7,4.9,1.7s3.5-0.6,4.9-1.7C16.4,17.4,13.9,16.5,12,16.5z"/>
	<path d="M12,6c-1.9,0-3.5,1.6-3.5,3.5S10.1,13,12,13s3.5-1.6,3.5-3.5S13.9,6,12,6z M12,11c-0.8,0-1.5-0.7-1.5-1.5S11.2,8,12,8
		s1.5,0.7,1.5,1.5S12.8,11,12,11z"/>
	<path d="M12,11c0.8,0,1.5-0.7,1.5-1.5C13.5,10.3,12.8,11,12,11z"/>
	<path d="M10.5,9.5c0,0.8,0.7,1.5,1.5,1.5C11.2,11,10.5,10.3,10.5,9.5z"/>
	<path d="M12,8c0.8,0,1.5,0.7,1.5,1.5C13.5,8.7,12.8,8,12,8z"/>
	<path d="M12,8c-0.8,0-1.5,0.7-1.5,1.5C10.5,8.7,11.2,8,12,8z"/>
	<path d="M5.6,16.8c0.4,0.6,0.9,1.1,1.5,1.5c0.4-0.9,3-1.8,4.9-1.8c1.9,0,4.4,0.9,4.9,1.8c0.6-0.4,1.1-0.9,1.5-1.5
		c-1.5-1.7-4.9-2.3-6.4-2.3S7.2,15.1,5.6,16.8z"/>
	<path class="st1" d="M5.6,16.8C5.6,16.8,5.6,16.8,5.6,16.8C5.6,16.8,5.6,16.8,5.6,16.8C5.6,16.8,5.6,16.8,5.6,16.8z"/>
</g>
</svg>
