<?xml version="1.0" encoding="utf-8"?>
<!-- Generator: Adobe Illustrator 24.0.2, SVG Export Plug-In . SVG Version: 6.00 Build 0)  -->
<svg version="1.1" id="Layer_1" xmlns="http://www.w3.org/2000/svg" xmlns:xlink="http://www.w3.org/1999/xlink" x="0px" y="0px"
	 viewBox="0 0 24 24" style="enable-background:new 0 0 24 24;" xml:space="preserve">
<style type="text/css">
	.st0{fill:none;}
</style>
<path class="st0" d="M0,0h24v24H0V0z"/>
<g>
	<circle class="st0" cx="12" cy="9.5" r="1.5"/>
	<path class="st0" d="M12,4c-4.4,0-8,3.6-8,8c0,1.8,0.6,3.5,1.6,4.8c1.4-1.7,4.9-2.3,6.4-2.3s4.9,0.6,6.4,2.3c1-1.3,1.6-3,1.6-4.8
		C20,7.6,16.4,4,12,4z M12,13c-1.9,0-3.5-1.6-3.5-3.5S10.1,6,12,6s3.5,1.6,3.5,3.5S13.9,13,12,13z"/>
	<path class="st0" d="M12,16.5c-1.9,0-4.5,0.9-4.9,1.8C8.4,19.4,10.1,20,12,20s3.6-0.6,4.9-1.7C16.5,17.4,13.9,16.5,12,16.5z"/>
	<path d="M12,6c-1.9,0-3.5,1.6-3.5,3.5S10.1,13,12,13s3.5-1.6,3.5-3.5S13.9,6,12,6z M12,11c-0.8,0-1.5-0.7-1.5-1.5S11.2,8,12,8
		s1.5,0.7,1.5,1.5S12.8,11,12,11z"/>
	<path d="M12,3.4c-4.7,0-8.6,3.8-8.6,8.6c0,4.7,3.8,8.6,8.6,8.6c4.7,0,8.6-3.8,8.6-8.6C20.6,7.3,16.7,3.4,12,3.4z M12,20
		c-1.9,0-3.6-0.6-4.9-1.7c0.4-0.9,3-1.8,4.9-1.8s4.5,0.9,4.9,1.8C15.6,19.4,13.9,20,12,20z M12,14.5c-1.5,0-4.9,0.6-6.4,2.3
		c-1-1.3-1.6-3-1.6-4.8c0-4.4,3.6-8,8-8s8,3.6,8,8c0,1.8-0.6,3.5-1.6,4.8C16.9,15.1,13.5,14.5,12,14.5z"/>
</g>
</svg>
