<?xml version="1.0" encoding="UTF-8" standalone="no"?>
<!-- Generator: Adobe Illustrator 25.2.3, SVG Export Plug-In . SVG Version: 6.00 Build 0)  -->

<svg
   xmlns:dc="http://purl.org/dc/elements/1.1/"
   xmlns:cc="http://creativecommons.org/ns#"
   xmlns:rdf="http://www.w3.org/1999/02/22-rdf-syntax-ns#"
   xmlns:svg="http://www.w3.org/2000/svg"
   xmlns="http://www.w3.org/2000/svg"
   xmlns:sodipodi="http://sodipodi.sourceforge.net/DTD/sodipodi-0.dtd"
   xmlns:inkscape="http://www.inkscape.org/namespaces/inkscape"
   version="1.1"
   id="Layer_1"
   x="0px"
   y="0px"
   viewBox="0 0 24 24"
   style="enable-background:new 0 0 24 24;"
   xml:space="preserve"
   sodipodi:docname="broken_heart_24.svg"
   inkscape:export-filename="/home/sarah/AndroidStudioProjects/flutter_app/assets/core/broken_heart_24.png"
   inkscape:export-xdpi="1280"
   inkscape:export-ydpi="1280"
   inkscape:version="0.92.5 (2060ec1f9f, 2020-04-08)"><metadata
   id="metadata19"><rdf:RDF><cc:Work
       rdf:about=""><dc:format>image/svg+xml</dc:format><dc:type
         rdf:resource="http://purl.org/dc/dcmitype/StillImage" /></cc:Work></rdf:RDF></metadata><defs
   id="defs17" /><sodipodi:namedview
   pagecolor="#ffffff"
   bordercolor="#666666"
   borderopacity="1"
   objecttolerance="10"
   gridtolerance="10"
   guidetolerance="10"
   inkscape:pageopacity="0"
   inkscape:pageshadow="2"
   inkscape:window-width="1920"
   inkscape:window-height="1015"
   id="namedview15"
   showgrid="false"
   inkscape:zoom="9.8333333"
   inkscape:cx="-6.344409"
   inkscape:cy="12.067375"
   inkscape:window-x="0"
   inkscape:window-y="0"
   inkscape:window-maximized="1"
   inkscape:current-layer="Layer_1" />
<path
   d="M16.5,3c-1.7,0-3.4,0.8-4.5,2.1C10.9,3.8,9.2,3,7.5,3C4.8,3,2.6,4.9,2.1,7.4C2,7.7,12,12.5,12,12.5L16.5,3z"
   id="path2"
   style="fill:#ffffff" />
<path
   d="M7.5,17.3c0.9,0.9,1.9,1.8,3,2.8l1.5,1.3l1.5-1.3c0.2-0.2,0.5-0.4,0.7-0.7L12,12.5L7.5,17.3z"
   id="path4"
   style="fill:#ffffff" />
<path
   d="M12,12.5l5.5,3.7c2.5-2.5,4.1-4.6,4.4-7C22,9,12,12.5,12,12.5z"
   id="path6"
   style="fill:#ffffff" />
<path
   d="M23,6.8c-0.2-1.8-1.2-3.4-2.8-4.2l-7.2,8.8L23,6.8z"
   id="path8"
   style="fill:#ffffff" />
<path
   d="M0.7,9.1c0.1,2.6,1.9,4.9,4.8,7.7l5.3-4L0.7,9.1z"
   id="path10"
   style="fill:#ffffff" />
<path
   d="M16.4,22.3c1.2-1.1,2.4-2.2,3.4-3.1l-5.5-3.7L16.4,22.3z"
   id="path12"
   style="fill:#ffffff" />
</svg>