<?xml version="1.0" encoding="UTF-8" standalone="no"?>
<!-- Generator: Adobe Illustrator 24.0.2, SVG Export Plug-In . SVG Version: 6.00 Build 0)  -->

<svg
   xmlns:dc="http://purl.org/dc/elements/1.1/"
   xmlns:cc="http://creativecommons.org/ns#"
   xmlns:rdf="http://www.w3.org/1999/02/22-rdf-syntax-ns#"
   xmlns:svg="http://www.w3.org/2000/svg"
   xmlns="http://www.w3.org/2000/svg"
   xmlns:sodipodi="http://sodipodi.sourceforge.net/DTD/sodipodi-0.dtd"
   xmlns:inkscape="http://www.inkscape.org/namespaces/inkscape"
   version="1.1"
   id="Layer_1"
   x="0px"
   y="0px"
   viewBox="0 0 500 500"
   style="enable-background:new 0 0 500 500;"
   xml:space="preserve"
   sodipodi:docname="Cwtch_knott_white.svg"
   inkscape:export-filename="/home/sarah/PARA/projects/cwtch/assets/core/knott-white.png"
   inkscape:export-xdpi="98.300003"
   inkscape:export-ydpi="98.300003"
   inkscape:version="0.92.4 (5da689c313, 2019-01-14)"><metadata
   id="metadata35"><rdf:RDF><cc:Work
       rdf:about=""><dc:format>image/svg+xml</dc:format><dc:type
         rdf:resource="http://purl.org/dc/dcmitype/StillImage" /></cc:Work></rdf:RDF></metadata><defs
   id="defs33" /><sodipodi:namedview
   pagecolor="#ffffff"
   bordercolor="#666666"
   borderopacity="1"
   objecttolerance="10"
   gridtolerance="10"
   guidetolerance="10"
   inkscape:pageopacity="0"
   inkscape:pageshadow="2"
   inkscape:window-width="1920"
   inkscape:window-height="1020"
   id="namedview31"
   showgrid="false"
   inkscape:zoom="1.3350176"
   inkscape:cx="-56.414859"
   inkscape:cy="254.41396"
   inkscape:window-x="0"
   inkscape:window-y="31"
   inkscape:window-maximized="1"
   inkscape:current-layer="Layer_1" />
<style
   type="text/css"
   id="style2">
	.st0{fill:#FFFFFF;}
	.st1{fill:#010101;}
	.st2{fill:#AF9CBA;}
	.st3{clip-path:url(#SVGID_2_);}
	.st4{clip-path:url(#SVGID_3_);}
	.st5{clip-path:url(#SVGID_4_);}
	.st6{clip-path:url(#SVGID_6_);}
	.st7{clip-path:url(#SVGID_7_);}
	.st8{clip-path:url(#SVGID_8_);}
	.st9{clip-path:url(#SVGID_10_);}
	.st10{clip-path:url(#SVGID_11_);}
	.st11{clip-path:url(#SVGID_12_);}
	.st12{clip-path:url(#SVGID_14_);}
	.st13{clip-path:url(#SVGID_15_);}
	.st14{clip-path:url(#SVGID_16_);}
	.st15{clip-path:url(#SVGID_18_);}
	.st16{clip-path:url(#SVGID_19_);}
	.st17{clip-path:url(#SVGID_20_);}
	.st18{clip-path:url(#SVGID_22_);}
	.st19{clip-path:url(#SVGID_23_);}
	.st20{clip-path:url(#SVGID_24_);}
	.st21{clip-path:url(#SVGID_26_);}
	.st22{clip-path:url(#SVGID_27_);}
	.st23{clip-path:url(#SVGID_28_);}
	.st24{clip-path:url(#SVGID_30_);}
	.st25{clip-path:url(#SVGID_31_);}
	.st26{clip-path:url(#SVGID_32_);}
	.st27{clip-path:url(#SVGID_34_);}
	.st28{clip-path:url(#SVGID_35_);}
	.st29{clip-path:url(#SVGID_36_);}
	.st30{clip-path:url(#SVGID_38_);}
	.st31{clip-path:url(#SVGID_39_);}
	.st32{clip-path:url(#SVGID_40_);}
	.st33{clip-path:url(#SVGID_42_);}
	.st34{clip-path:url(#SVGID_43_);}
	.st35{clip-path:url(#SVGID_44_);}
	.st36{clip-path:url(#SVGID_46_);}
	.st37{clip-path:url(#SVGID_47_);}
	.st38{clip-path:url(#SVGID_48_);}
	.st39{clip-path:url(#SVGID_50_);}
	.st40{clip-path:url(#SVGID_51_);}
	.st41{clip-path:url(#SVGID_52_);}
	.st42{clip-path:url(#SVGID_54_);}
	.st43{clip-path:url(#SVGID_55_);}
	.st44{clip-path:url(#SVGID_56_);}
	.st45{clip-path:url(#SVGID_58_);}
	.st46{clip-path:url(#SVGID_59_);}
	.st47{clip-path:url(#SVGID_60_);}
	.st48{clip-path:url(#SVGID_62_);}
	.st49{clip-path:url(#SVGID_63_);}
	.st50{clip-path:url(#SVGID_64_);}
	.st51{clip-path:url(#SVGID_66_);}
	.st52{clip-path:url(#SVGID_67_);}
	.st53{clip-path:url(#SVGID_68_);}
	.st54{clip-path:url(#SVGID_70_);}
	.st55{clip-path:url(#SVGID_71_);}
	.st56{clip-path:url(#SVGID_72_);}
	.st57{clip-path:url(#SVGID_74_);}
	.st58{clip-path:url(#SVGID_75_);}
	.st59{clip-path:url(#SVGID_76_);}
	.st60{clip-path:url(#SVGID_78_);}
	.st61{clip-path:url(#SVGID_79_);}
	.st62{clip-path:url(#SVGID_80_);}
	.st63{clip-path:url(#SVGID_82_);}
	.st64{clip-path:url(#SVGID_83_);}
	.st65{clip-path:url(#SVGID_84_);}
	.st66{clip-path:url(#SVGID_86_);}
	.st67{clip-path:url(#SVGID_87_);}
	.st68{clip-path:url(#SVGID_88_);}
	.st69{clip-path:url(#SVGID_90_);}
	.st70{clip-path:url(#SVGID_91_);}
	.st71{clip-path:url(#SVGID_92_);}
	.st72{clip-path:url(#SVGID_94_);}
	.st73{clip-path:url(#SVGID_95_);}
	.st74{clip-path:url(#SVGID_96_);}
	.st75{clip-path:url(#SVGID_98_);}
	.st76{clip-path:url(#SVGID_99_);}
	.st77{clip-path:url(#SVGID_100_);}
	.st78{clip-path:url(#SVGID_102_);}
	.st79{clip-path:url(#SVGID_103_);}
	.st80{clip-path:url(#SVGID_104_);}
	.st81{clip-path:url(#SVGID_106_);}
	.st82{clip-path:url(#SVGID_107_);}
	.st83{clip-path:url(#SVGID_108_);}
	.st84{clip-path:url(#SVGID_110_);}
	.st85{clip-path:url(#SVGID_111_);}
	.st86{clip-path:url(#SVGID_112_);}
	.st87{clip-path:url(#SVGID_114_);}
	.st88{clip-path:url(#SVGID_115_);}
	.st89{clip-path:url(#SVGID_116_);}
	.st90{clip-path:url(#SVGID_118_);}
	.st91{clip-path:url(#SVGID_119_);}
	.st92{clip-path:url(#SVGID_120_);}
	.st93{clip-path:url(#SVGID_122_);}
	.st94{clip-path:url(#SVGID_123_);}
	.st95{clip-path:url(#SVGID_124_);}
	.st96{clip-path:url(#SVGID_126_);}
	.st97{clip-path:url(#SVGID_127_);}
	.st98{clip-path:url(#SVGID_128_);}
	.st99{fill:#64317C;}
	.st100{clip-path:url(#SVGID_130_);}
	.st101{clip-path:url(#SVGID_131_);}
	.st102{clip-path:url(#SVGID_132_);}
	.st103{clip-path:url(#SVGID_134_);}
	.st104{clip-path:url(#SVGID_135_);}
	.st105{clip-path:url(#SVGID_136_);}
	.st106{clip-path:url(#SVGID_138_);}
	.st107{clip-path:url(#SVGID_139_);}
	.st108{clip-path:url(#SVGID_140_);}
	.st109{clip-path:url(#SVGID_142_);}
	.st110{clip-path:url(#SVGID_143_);}
	.st111{clip-path:url(#SVGID_144_);}
	.st112{clip-path:url(#SVGID_146_);}
	.st113{clip-path:url(#SVGID_147_);}
	.st114{clip-path:url(#SVGID_148_);}
	.st115{clip-path:url(#SVGID_150_);}
	.st116{clip-path:url(#SVGID_151_);}
	.st117{clip-path:url(#SVGID_152_);}
	.st118{clip-path:url(#SVGID_154_);}
	.st119{clip-path:url(#SVGID_155_);}
	.st120{clip-path:url(#SVGID_156_);}
	.st121{clip-path:url(#SVGID_158_);}
	.st122{clip-path:url(#SVGID_159_);}
	.st123{clip-path:url(#SVGID_160_);}
	.st124{clip-path:url(#SVGID_162_);}
	.st125{clip-path:url(#SVGID_163_);}
	.st126{clip-path:url(#SVGID_164_);}
	.st127{clip-path:url(#SVGID_166_);}
	.st128{clip-path:url(#SVGID_167_);}
	.st129{clip-path:url(#SVGID_168_);}
	.st130{clip-path:url(#SVGID_170_);}
	.st131{clip-path:url(#SVGID_171_);}
	.st132{clip-path:url(#SVGID_172_);}
	.st133{clip-path:url(#SVGID_174_);}
	.st134{clip-path:url(#SVGID_175_);}
	.st135{clip-path:url(#SVGID_176_);}
	.st136{clip-path:url(#SVGID_178_);}
	.st137{clip-path:url(#SVGID_179_);}
	.st138{clip-path:url(#SVGID_180_);}
	.st139{clip-path:url(#SVGID_182_);}
	.st140{clip-path:url(#SVGID_183_);}
	.st141{clip-path:url(#SVGID_184_);}
	.st142{clip-path:url(#SVGID_186_);}
	.st143{clip-path:url(#SVGID_187_);}
	.st144{clip-path:url(#SVGID_188_);}
	.st145{clip-path:url(#SVGID_190_);}
	.st146{clip-path:url(#SVGID_191_);}
	.st147{clip-path:url(#SVGID_192_);}
	.st148{clip-path:url(#SVGID_194_);}
	.st149{clip-path:url(#SVGID_195_);}
	.st150{clip-path:url(#SVGID_196_);}
	.st151{clip-path:url(#SVGID_198_);}
	.st152{clip-path:url(#SVGID_199_);}
	.st153{clip-path:url(#SVGID_200_);}
	.st154{clip-path:url(#SVGID_202_);}
	.st155{clip-path:url(#SVGID_203_);}
	.st156{clip-path:url(#SVGID_204_);}
	.st157{clip-path:url(#SVGID_206_);}
	.st158{clip-path:url(#SVGID_207_);}
	.st159{clip-path:url(#SVGID_208_);}
	.st160{clip-path:url(#SVGID_210_);}
	.st161{clip-path:url(#SVGID_211_);}
	.st162{clip-path:url(#SVGID_212_);}
	.st163{clip-path:url(#SVGID_214_);}
	.st164{clip-path:url(#SVGID_215_);}
	.st165{clip-path:url(#SVGID_216_);}
	.st166{clip-path:url(#SVGID_218_);}
	.st167{clip-path:url(#SVGID_219_);}
	.st168{clip-path:url(#SVGID_220_);}
	.st169{clip-path:url(#SVGID_222_);}
	.st170{clip-path:url(#SVGID_223_);}
	.st171{clip-path:url(#SVGID_224_);}
	.st172{clip-path:url(#SVGID_226_);}
	.st173{clip-path:url(#SVGID_227_);}
	.st174{clip-path:url(#SVGID_228_);}
	.st175{clip-path:url(#SVGID_230_);}
	.st176{clip-path:url(#SVGID_231_);}
	.st177{clip-path:url(#SVGID_232_);}
	.st178{clip-path:url(#SVGID_234_);}
	.st179{clip-path:url(#SVGID_235_);}
	.st180{clip-path:url(#SVGID_236_);}
	.st181{clip-path:url(#SVGID_238_);}
	.st182{clip-path:url(#SVGID_239_);}
	.st183{clip-path:url(#SVGID_240_);}
	.st184{clip-path:url(#SVGID_242_);}
	.st185{clip-path:url(#SVGID_243_);}
	.st186{clip-path:url(#SVGID_244_);}
	.st187{clip-path:url(#SVGID_246_);}
	.st188{clip-path:url(#SVGID_247_);}
	.st189{clip-path:url(#SVGID_248_);}
	.st190{clip-path:url(#SVGID_250_);}
	.st191{clip-path:url(#SVGID_251_);}
	.st192{clip-path:url(#SVGID_252_);}
	.st193{clip-path:url(#SVGID_254_);}
	.st194{clip-path:url(#SVGID_255_);}
	.st195{clip-path:url(#SVGID_256_);}
</style>
<g
   transform="translate(2.1186441)"
   id="g61"
   style="fill:#000000;stroke:#000000;stroke-opacity:1;stroke-width:7.4999999;stroke-miterlimit:4;stroke-dasharray:none">
	<path
   style="fill:#000000;stroke:#000000;stroke-opacity:1;stroke-width:7.4999999;stroke-miterlimit:4;stroke-dasharray:none"
   inkscape:connector-curvature="0"
   id="path37"
   d="m 465.94,209.46 c -0.72,3.49 -2.35,7.45 -4.95,12.03 l 21.16,21.16 c 2.83,-5.51 7.14,-15.16 9.47,-26.61 4.76,-23.39 -0.6,-43.02 -15.93,-58.35 -28.01,-28.01 -57.26,-30.61 -94.84,-8.43 -9.04,5.34 -18.64,12.24 -28.55,20.51 -22.58,18.86 -47.88,45.85 -75.22,80.23 17.91,22.52 35,41.95 50.83,57.79 7.26,7.26 14.4,13.91 21.27,19.81 l 18.76,-18.76 c -6.83,-5.78 -13.98,-12.41 -21.32,-19.75 -10.39,-10.39 -21.5,-22.57 -32.99,-36.19 l -2.43,-2.9 2.44,-2.89 c 21.03,-24.91 40.59,-44.8 58.14,-59.09 11.14,-9.08 21.56,-15.98 30.98,-20.53 8.14,-3.92 15.55,-6.11 22.03,-6.49 3.16,-0.19 8.05,-0.15 14,2.3 5.84,2.4 11.79,6.68 18.2,13.09 2.39,2.39 5.82,6.25 7.91,12.08 2.16,6.02 2.51,12.85 1.07,20.88 z"
   class="st0" />
	<path
   style="fill:#000000;stroke:#000000;stroke-opacity:1;stroke-width:7.4999999;stroke-miterlimit:4;stroke-dasharray:none"
   inkscape:connector-curvature="0"
   id="path39"
   d="M 355.44,371.4 450,276.85 c -5.56,-8.23 -12.85,-16.22 -16.93,-20.49 l -93.37,93.37 c 6.02,7.42 11.29,14.68 15.74,21.67 z"
   class="st0" />
	<path
   style="fill:#000000;stroke:#000000;stroke-opacity:1;stroke-width:7.4999999;stroke-miterlimit:4;stroke-dasharray:none"
   inkscape:connector-curvature="0"
   id="path41"
   d="m 475.69,342.31 c 15.32,-15.32 20.68,-34.95 15.93,-58.34 -3.3,-16.23 -10.57,-28.84 -11.98,-31.18 l -75.82,-75.82 c -6.95,3.64 -14.5,8.63 -22.52,14.89 l 58.13,58.14 -0.03,0.03 c 4.8,5.01 13.98,15.11 20.13,25.07 3.75,6.08 5.87,11.21 6.46,15.66 1.42,7.98 1.06,14.77 -1.09,20.77 -2.09,5.83 -5.51,9.68 -7.91,12.08 -6.83,6.83 -13.16,11.26 -19.37,13.55 -6.33,2.34 -11.55,2.09 -15.39,1.6 -5.05,-0.63 -10.62,-2.28 -16.58,-4.9 L 385.9,353.6 c 35.17,19.04 63.04,15.46 89.79,-11.29 z"
   class="st0" />
	<path
   style="fill:#000000;stroke:#000000;stroke-opacity:1;stroke-width:7.4999999;stroke-miterlimit:4;stroke-dasharray:none"
   inkscape:connector-curvature="0"
   id="path43"
   d="m 311.53,35.11 c 5.83,2.09 9.68,5.51 12.08,7.91 6.83,6.83 11.26,13.16 13.55,19.37 2.34,6.33 2.09,11.55 1.6,15.39 -0.63,5.05 -2.28,10.62 -4.9,16.58 L 353.6,114.1 C 372.64,78.93 369.06,51.06 342.31,24.31 326.99,8.99 307.36,3.63 283.97,8.38 c -16.23,3.3 -28.84,10.57 -31.18,11.98 l -75.82,75.82 c 3.64,6.95 8.63,14.5 14.89,22.52 L 250,60.57 l 0.03,0.03 c 5.01,-4.8 15.11,-13.98 25.07,-20.13 6.08,-3.75 11.21,-5.87 15.66,-6.46 7.98,-1.41 14.77,-1.05 20.77,1.1 z"
   class="st0" />
	<path
   style="fill:#000000;stroke:#000000;stroke-opacity:1;stroke-width:7.4999999;stroke-miterlimit:4;stroke-dasharray:none"
   inkscape:connector-curvature="0"
   id="path45"
   d="m 157.69,24.31 c -28.01,28.01 -30.61,57.26 -8.43,94.84 5.34,9.04 12.24,18.64 20.51,28.54 18.86,22.58 45.85,47.88 80.23,75.22 22.52,-17.91 41.95,-35 57.79,-50.83 7.26,-7.26 13.91,-14.4 19.81,-21.27 l -18.76,-18.76 c -5.78,6.83 -12.41,13.98 -19.75,21.32 -10.39,10.39 -22.57,21.49 -36.19,32.99 l -2.9,2.44 -2.89,-2.44 C 222.2,165.33 202.31,145.77 188.02,128.22 178.94,117.08 172.04,106.66 167.49,97.24 163.57,89.1 161.38,81.69 161,75.21 c -0.19,-3.16 -0.15,-8.05 2.3,-14 2.4,-5.84 6.68,-11.79 13.09,-18.2 2.39,-2.39 6.25,-5.82 12.08,-7.91 6.02,-2.16 12.85,-2.51 20.87,-1.07 l 0.11,0.02 c 3.49,0.72 7.45,2.35 12.03,4.95 L 242.64,17.84 C 237.13,15.01 227.48,10.7 216.02,8.37 192.64,3.63 173.01,8.99 157.69,24.31 Z"
   class="st0" />
	<path
   style="fill:#000000;stroke:#000000;stroke-opacity:1;stroke-width:7.4999999;stroke-miterlimit:4;stroke-dasharray:none"
   inkscape:connector-curvature="0"
   id="path47"
   d="m 276.85,50 c -8.23,5.56 -16.22,12.85 -20.49,16.92 l 93.37,93.37 c 7.42,-6.02 14.68,-11.29 21.67,-15.74 z"
   class="st0" />
	<path
   style="fill:#000000;stroke:#000000;stroke-opacity:1;stroke-width:7.4999999;stroke-miterlimit:4;stroke-dasharray:none"
   inkscape:connector-curvature="0"
   id="path49"
   d="m 24.31,342.31 c 28.01,28.01 57.26,30.61 94.84,8.43 9.04,-5.34 18.64,-12.24 28.54,-20.51 22.58,-18.86 47.88,-45.85 75.22,-80.23 -17.91,-22.52 -35,-41.95 -50.83,-57.79 -7.26,-7.26 -14.4,-13.91 -21.27,-19.81 l -18.76,18.76 c 6.83,5.78 13.98,12.41 21.32,19.75 10.39,10.39 21.5,22.57 32.99,36.19 l 2.44,2.89 -2.44,2.89 c -21.03,24.91 -40.59,44.8 -58.14,59.09 -11.14,9.08 -21.56,15.98 -30.98,20.53 -8.14,3.92 -15.55,6.11 -22.03,6.49 -3.16,0.19 -8.05,0.15 -14,-2.3 -5.84,-2.4 -11.79,-6.68 -18.2,-13.09 -2.39,-2.39 -5.82,-6.25 -7.91,-12.08 -2.16,-6.02 -2.51,-12.85 -1.07,-20.88 l 0.02,-0.11 C 34.77,287.04 36.4,283.08 39,278.5 L 17.84,257.34 c -2.83,5.51 -7.14,15.17 -9.47,26.63 -4.74,23.39 0.62,43.02 15.94,58.34 z"
   class="st0" />
	<path
   style="fill:#000000;stroke:#000000;stroke-opacity:1;stroke-width:7.4999999;stroke-miterlimit:4;stroke-dasharray:none"
   inkscape:connector-curvature="0"
   id="path51"
   d="m 60.57,250 0.03,-0.03 c -4.8,-5.02 -13.98,-15.11 -20.13,-25.07 -3.75,-6.08 -5.87,-11.21 -6.46,-15.66 -1.42,-7.98 -1.06,-14.77 1.09,-20.77 2.09,-5.83 5.51,-9.68 7.91,-12.08 6.83,-6.83 13.16,-11.26 19.37,-13.55 6.33,-2.34 11.55,-2.09 15.39,-1.6 5.05,0.63 10.62,2.28 16.58,4.9 L 114.09,146.4 C 78.92,127.36 51.05,130.94 24.3,157.69 8.99,173.01 3.63,192.64 8.38,216.03 c 3.3,16.23 10.57,28.84 11.98,31.18 l 75.82,75.82 c 6.95,-3.64 14.5,-8.63 22.52,-14.89 z"
   class="st0" />
	<path
   style="fill:#000000;stroke:#000000;stroke-opacity:1;stroke-width:7.4999999;stroke-miterlimit:4;stroke-dasharray:none"
   inkscape:connector-curvature="0"
   id="path53"
   d="m 66.93,243.64 93.37,-93.37 c -6.02,-7.42 -11.29,-14.68 -15.74,-21.67 L 50,223.15 c 5.57,8.23 12.85,16.23 16.93,20.49 z"
   class="st0" />
	<path
   style="fill:#000000;stroke:#000000;stroke-opacity:1;stroke-width:7.4999999;stroke-miterlimit:4;stroke-dasharray:none"
   inkscape:connector-curvature="0"
   id="path55"
   d="m 342.31,475.69 c 28.01,-28.01 30.61,-57.26 8.43,-94.84 -5.34,-9.04 -12.24,-18.64 -20.51,-28.54 -18.86,-22.58 -45.85,-47.88 -80.23,-75.22 -22.52,17.91 -41.95,35 -57.79,50.83 -7.26,7.26 -13.91,14.4 -19.81,21.27 l 18.76,18.76 c 5.78,-6.83 12.41,-13.98 19.75,-21.32 10.39,-10.39 22.57,-21.49 36.19,-32.99 l 2.89,-2.44 2.89,2.44 c 24.91,21.03 44.8,40.59 59.09,58.14 9.08,11.14 15.98,21.56 20.53,30.98 3.93,8.14 6.11,15.56 6.49,22.03 0.19,3.16 0.15,8.05 -2.3,14 -2.4,5.84 -6.68,11.79 -13.09,18.2 -2.39,2.39 -6.25,5.82 -12.08,7.91 -6.02,2.16 -12.85,2.51 -20.88,1.07 l -0.11,-0.02 c -3.49,-0.72 -7.45,-2.35 -12.03,-4.95 l -21.16,21.16 c 5.5,2.83 15.15,7.13 26.59,9.46 23.41,4.76 43.05,-0.6 58.38,-15.93 z"
   class="st0" />
	<path
   style="fill:#000000;stroke:#000000;stroke-opacity:1;stroke-width:7.4999999;stroke-miterlimit:4;stroke-dasharray:none"
   inkscape:connector-curvature="0"
   id="path57"
   d="M 243.64,433.07 150.27,339.7 c -7.42,6.02 -14.68,11.29 -21.67,15.74 L 223.15,450 c 8.23,-5.57 16.23,-12.85 20.49,-16.93 z"
   class="st0" />
	<path
   style="fill:#000000;stroke:#000000;stroke-opacity:1;stroke-width:7.4999999;stroke-miterlimit:4;stroke-dasharray:none"
   inkscape:connector-curvature="0"
   id="path59"
   d="m 157.69,475.69 c 15.32,15.32 34.95,20.68 58.33,15.93 16.24,-3.3 28.85,-10.58 31.19,-11.98 l 75.82,-75.82 c -3.64,-6.95 -8.63,-14.5 -14.89,-22.52 L 250,439.43 249.97,439.4 c -5.01,4.8 -15.11,13.98 -25.07,20.13 -6.08,3.75 -11.21,5.87 -15.66,6.46 -7.98,1.42 -14.77,1.06 -20.77,-1.09 -5.83,-2.09 -9.68,-5.51 -12.08,-7.91 -6.83,-6.83 -11.26,-13.16 -13.55,-19.37 -2.34,-6.33 -2.09,-11.55 -1.6,-15.39 0.63,-5.05 2.28,-10.62 4.9,-16.58 L 146.4,385.9 c -19.04,35.17 -15.46,63.04 11.29,89.79 z"
   class="st0" />
</g><g
   id="g28"
   transform="translate(2.1186441)">
	<path
   class="st0"
   d="m 465.94,209.46 c -0.72,3.49 -2.35,7.45 -4.95,12.03 l 21.16,21.16 c 2.83,-5.51 7.14,-15.16 9.47,-26.61 4.76,-23.39 -0.6,-43.02 -15.93,-58.35 -28.01,-28.01 -57.26,-30.61 -94.84,-8.43 -9.04,5.34 -18.64,12.24 -28.55,20.51 -22.58,18.86 -47.88,45.85 -75.22,80.23 17.91,22.52 35,41.95 50.83,57.79 7.26,7.26 14.4,13.91 21.27,19.81 l 18.76,-18.76 c -6.83,-5.78 -13.98,-12.41 -21.32,-19.75 -10.39,-10.39 -21.5,-22.57 -32.99,-36.19 l -2.43,-2.9 2.44,-2.89 c 21.03,-24.91 40.59,-44.8 58.14,-59.09 11.14,-9.08 21.56,-15.98 30.98,-20.53 8.14,-3.92 15.55,-6.11 22.03,-6.49 3.16,-0.19 8.05,-0.15 14,2.3 5.84,2.4 11.79,6.68 18.2,13.09 2.39,2.39 5.82,6.25 7.91,12.08 2.16,6.02 2.51,12.85 1.07,20.88 z"
   id="path4"
   inkscape:connector-curvature="0"
   style="fill:#ffffff" />
	<path
   class="st0"
   d="M 355.44,371.4 450,276.85 c -5.56,-8.23 -12.85,-16.22 -16.93,-20.49 l -93.37,93.37 c 6.02,7.42 11.29,14.68 15.74,21.67 z"
   id="path6"
   inkscape:connector-curvature="0"
   style="fill:#ffffff" />
	<path
   class="st0"
   d="m 475.69,342.31 c 15.32,-15.32 20.68,-34.95 15.93,-58.34 -3.3,-16.23 -10.57,-28.84 -11.98,-31.18 l -75.82,-75.82 c -6.95,3.64 -14.5,8.63 -22.52,14.89 l 58.13,58.14 -0.03,0.03 c 4.8,5.01 13.98,15.11 20.13,25.07 3.75,6.08 5.87,11.21 6.46,15.66 1.42,7.98 1.06,14.77 -1.09,20.77 -2.09,5.83 -5.51,9.68 -7.91,12.08 -6.83,6.83 -13.16,11.26 -19.37,13.55 -6.33,2.34 -11.55,2.09 -15.39,1.6 -5.05,-0.63 -10.62,-2.28 -16.58,-4.9 L 385.9,353.6 c 35.17,19.04 63.04,15.46 89.79,-11.29 z"
   id="path8"
   inkscape:connector-curvature="0"
   style="fill:#ffffff" />
	<path
   class="st0"
   d="m 311.53,35.11 c 5.83,2.09 9.68,5.51 12.08,7.91 6.83,6.83 11.26,13.16 13.55,19.37 2.34,6.33 2.09,11.55 1.6,15.39 -0.63,5.05 -2.28,10.62 -4.9,16.58 L 353.6,114.1 C 372.64,78.93 369.06,51.06 342.31,24.31 326.99,8.99 307.36,3.63 283.97,8.38 c -16.23,3.3 -28.84,10.57 -31.18,11.98 l -75.82,75.82 c 3.64,6.95 8.63,14.5 14.89,22.52 L 250,60.57 l 0.03,0.03 c 5.01,-4.8 15.11,-13.98 25.07,-20.13 6.08,-3.75 11.21,-5.87 15.66,-6.46 7.98,-1.41 14.77,-1.05 20.77,1.1 z"
   id="path10"
   inkscape:connector-curvature="0"
   style="fill:#ffffff" />
	<path
   class="st0"
   d="m 157.69,24.31 c -28.01,28.01 -30.61,57.26 -8.43,94.84 5.34,9.04 12.24,18.64 20.51,28.54 18.86,22.58 45.85,47.88 80.23,75.22 22.52,-17.91 41.95,-35 57.79,-50.83 7.26,-7.26 13.91,-14.4 19.81,-21.27 l -18.76,-18.76 c -5.78,6.83 -12.41,13.98 -19.75,21.32 -10.39,10.39 -22.57,21.49 -36.19,32.99 l -2.9,2.44 -2.89,-2.44 C 222.2,165.33 202.31,145.77 188.02,128.22 178.94,117.08 172.04,106.66 167.49,97.24 163.57,89.1 161.38,81.69 161,75.21 c -0.19,-3.16 -0.15,-8.05 2.3,-14 2.4,-5.84 6.68,-11.79 13.09,-18.2 2.39,-2.39 6.25,-5.82 12.08,-7.91 6.02,-2.16 12.85,-2.51 20.87,-1.07 l 0.11,0.02 c 3.49,0.72 7.45,2.35 12.03,4.95 L 242.64,17.84 C 237.13,15.01 227.48,10.7 216.02,8.37 192.64,3.63 173.01,8.99 157.69,24.31 Z"
   id="path12"
   inkscape:connector-curvature="0"
   style="fill:#ffffff" />
	<path
   class="st0"
   d="m 276.85,50 c -8.23,5.56 -16.22,12.85 -20.49,16.92 l 93.37,93.37 c 7.42,-6.02 14.68,-11.29 21.67,-15.74 z"
   id="path14"
   inkscape:connector-curvature="0"
   style="fill:#ffffff" />
	<path
   class="st0"
   d="m 24.31,342.31 c 28.01,28.01 57.26,30.61 94.84,8.43 9.04,-5.34 18.64,-12.24 28.54,-20.51 22.58,-18.86 47.88,-45.85 75.22,-80.23 -17.91,-22.52 -35,-41.95 -50.83,-57.79 -7.26,-7.26 -14.4,-13.91 -21.27,-19.81 l -18.76,18.76 c 6.83,5.78 13.98,12.41 21.32,19.75 10.39,10.39 21.5,22.57 32.99,36.19 l 2.44,2.89 -2.44,2.89 c -21.03,24.91 -40.59,44.8 -58.14,59.09 -11.14,9.08 -21.56,15.98 -30.98,20.53 -8.14,3.92 -15.55,6.11 -22.03,6.49 -3.16,0.19 -8.05,0.15 -14,-2.3 -5.84,-2.4 -11.79,-6.68 -18.2,-13.09 -2.39,-2.39 -5.82,-6.25 -7.91,-12.08 -2.16,-6.02 -2.51,-12.85 -1.07,-20.88 l 0.02,-0.11 C 34.77,287.04 36.4,283.08 39,278.5 L 17.84,257.34 c -2.83,5.51 -7.14,15.17 -9.47,26.63 -4.74,23.39 0.62,43.02 15.94,58.34 z"
   id="path16"
   inkscape:connector-curvature="0"
   style="fill:#ffffff" />
	<path
   class="st0"
   d="m 60.57,250 0.03,-0.03 c -4.8,-5.02 -13.98,-15.11 -20.13,-25.07 -3.75,-6.08 -5.87,-11.21 -6.46,-15.66 -1.42,-7.98 -1.06,-14.77 1.09,-20.77 2.09,-5.83 5.51,-9.68 7.91,-12.08 6.83,-6.83 13.16,-11.26 19.37,-13.55 6.33,-2.34 11.55,-2.09 15.39,-1.6 5.05,0.63 10.62,2.28 16.58,4.9 L 114.09,146.4 C 78.92,127.36 51.05,130.94 24.3,157.69 8.99,173.01 3.63,192.64 8.38,216.03 c 3.3,16.23 10.57,28.84 11.98,31.18 l 75.82,75.82 c 6.95,-3.64 14.5,-8.63 22.52,-14.89 z"
   id="path18"
   inkscape:connector-curvature="0"
   style="fill:#ffffff" />
	<path
   class="st0"
   d="m 66.93,243.64 93.37,-93.37 c -6.02,-7.42 -11.29,-14.68 -15.74,-21.67 L 50,223.15 c 5.57,8.23 12.85,16.23 16.93,20.49 z"
   id="path20"
   inkscape:connector-curvature="0"
   style="fill:#ffffff" />
	<path
   class="st0"
   d="m 342.31,475.69 c 28.01,-28.01 30.61,-57.26 8.43,-94.84 -5.34,-9.04 -12.24,-18.64 -20.51,-28.54 -18.86,-22.58 -45.85,-47.88 -80.23,-75.22 -22.52,17.91 -41.95,35 -57.79,50.83 -7.26,7.26 -13.91,14.4 -19.81,21.27 l 18.76,18.76 c 5.78,-6.83 12.41,-13.98 19.75,-21.32 10.39,-10.39 22.57,-21.49 36.19,-32.99 l 2.89,-2.44 2.89,2.44 c 24.91,21.03 44.8,40.59 59.09,58.14 9.08,11.14 15.98,21.56 20.53,30.98 3.93,8.14 6.11,15.56 6.49,22.03 0.19,3.16 0.15,8.05 -2.3,14 -2.4,5.84 -6.68,11.79 -13.09,18.2 -2.39,2.39 -6.25,5.82 -12.08,7.91 -6.02,2.16 -12.85,2.51 -20.88,1.07 l -0.11,-0.02 c -3.49,-0.72 -7.45,-2.35 -12.03,-4.95 l -21.16,21.16 c 5.5,2.83 15.15,7.13 26.59,9.46 23.41,4.76 43.05,-0.6 58.38,-15.93 z"
   id="path22"
   inkscape:connector-curvature="0"
   style="fill:#ffffff" />
	<path
   class="st0"
   d="M 243.64,433.07 150.27,339.7 c -7.42,6.02 -14.68,11.29 -21.67,15.74 L 223.15,450 c 8.23,-5.57 16.23,-12.85 20.49,-16.93 z"
   id="path24"
   inkscape:connector-curvature="0"
   style="fill:#ffffff" />
	<path
   class="st0"
   d="m 157.69,475.69 c 15.32,15.32 34.95,20.68 58.33,15.93 16.24,-3.3 28.85,-10.58 31.19,-11.98 l 75.82,-75.82 c -3.64,-6.95 -8.63,-14.5 -14.89,-22.52 L 250,439.43 249.97,439.4 c -5.01,4.8 -15.11,13.98 -25.07,20.13 -6.08,3.75 -11.21,5.87 -15.66,6.46 -7.98,1.42 -14.77,1.06 -20.77,-1.09 -5.83,-2.09 -9.68,-5.51 -12.08,-7.91 -6.83,-6.83 -11.26,-13.16 -13.55,-19.37 -2.34,-6.33 -2.09,-11.55 -1.6,-15.39 0.63,-5.05 2.28,-10.62 4.9,-16.58 L 146.4,385.9 c -19.04,35.17 -15.46,63.04 11.29,89.79 z"
   id="path26"
   inkscape:connector-curvature="0"
   style="fill:#ffffff" />
</g>
</svg>