<?xml version="1.0" encoding="utf-8"?>
<!-- Generator: Adobe Illustrator 25.0.1, SVG Export Plug-In . SVG Version: 6.00 Build 0)  -->
<svg version="1.1" id="Layer_1" xmlns="http://www.w3.org/2000/svg" xmlns:xlink="http://www.w3.org/1999/xlink" x="0px" y="0px"
	 viewBox="0 0 24 24" style="enable-background:new 0 0 24 24;" xml:space="preserve">
<style type="text/css">
	.st0{fill:none;}
</style>
<g>
	<path d="M8.9,12.9c-0.3,0-0.6,0-0.9,0c-2.1,0-6.3,1-6.3,3.1v2.2h5.4V16C7.1,14.7,7.8,13.7,8.9,12.9z"/>
	<path d="M8,11.1c1.5,0,2.7-1.2,2.7-2.7c0-1.5-1.2-2.7-2.7-2.7c-1.5,0-2.7,1.2-2.7,2.7C5.3,9.9,6.5,11.1,8,11.1z"/>
	<path d="M14.3,11.1c1.5,0,2.7-1.2,2.7-2.7c0-1.5-1.2-2.7-2.7-2.7s-2.7,1.2-2.7,2.7C11.7,9.9,12.8,11.1,14.3,11.1z"/>
	<path d="M15.4,13c-0.4,0-0.7-0.1-1.1-0.1c-2.1,0-6-0.4-6.3,3.1v2.2h4.8c0-0.2,0-0.3,0-0.5C12.8,15.8,13.8,14,15.4,13z"/>
</g>
<path class="st0" d="M0,0h24v24H0V0z"/>
<path d="M22.1,18.3c0-0.1,0-0.3,0-0.4c0-0.2,0-0.3,0-0.4l1-0.7c0.1-0.1,0.1-0.2,0.1-0.3l-0.9-1.6c-0.1-0.1-0.2-0.1-0.3-0.1l-1.1,0.5
	c-0.2-0.2-0.5-0.3-0.8-0.4l-0.2-1.2c0-0.1-0.1-0.2-0.2-0.2h-1.8c-0.1,0-0.2,0.1-0.2,0.2l-0.2,1.2c-0.3,0.1-0.5,0.3-0.8,0.4l-1.1-0.5
	c-0.1,0-0.2,0-0.3,0.1l-0.9,1.6c-0.1,0.1,0,0.2,0.1,0.3l1,0.7c0,0.1,0,0.3,0,0.4s0,0.3,0,0.4l-1,0.7c-0.1,0.1-0.1,0.2-0.1,0.3
	l0.9,1.6c0.1,0.1,0.2,0.1,0.3,0.1l1.1-0.5c0.2,0.2,0.5,0.3,0.8,0.4l0.2,1.2c0,0.1,0.1,0.2,0.2,0.2h1.8c0.1,0,0.2-0.1,0.2-0.2L20,21
	c0.3-0.1,0.5-0.3,0.8-0.4l1.1,0.5c0.1,0,0.2,0,0.3-0.1l0.9-1.6c0.1-0.1,0-0.2-0.1-0.3L22.1,18.3z M18.7,19.5c-0.9,0-1.7-0.8-1.7-1.7
	c0-0.9,0.8-1.7,1.7-1.7c0.9,0,1.7,0.8,1.7,1.7C20.5,18.8,19.7,19.5,18.7,19.5z"/>
</svg>
