<?xml version="1.0" encoding="UTF-8" standalone="no"?>
<svg
   xmlns:dc="http://purl.org/dc/elements/1.1/"
   xmlns:cc="http://creativecommons.org/ns#"
   xmlns:rdf="http://www.w3.org/1999/02/22-rdf-syntax-ns#"
   xmlns:svg="http://www.w3.org/2000/svg"
   xmlns="http://www.w3.org/2000/svg"
   xmlns:sodipodi="http://sodipodi.sourceforge.net/DTD/sodipodi-0.dtd"
   xmlns:inkscape="http://www.inkscape.org/namespaces/inkscape"
   version="1.1"
   id="Layer_1"
   x="0px"
   y="0px"
   viewBox="0 0 500 500"
   style="enable-background:new 0 0 500 500;"
   xml:space="preserve"
   sodipodi:docname="knott-white.svg"
   inkscape:version="1.0.2 (e86c870879, 2021-01-15)"><metadata
   id="metadata63"><rdf:RDF><cc:Work
       rdf:about=""><dc:format>image/svg+xml</dc:format><dc:type
         rdf:resource="http://purl.org/dc/dcmitype/StillImage" /><dc:title></dc:title></cc:Work></rdf:RDF></metadata><defs
   id="defs61" /><sodipodi:namedview
   pagecolor="#ffffff"
   bordercolor="#666666"
   borderopacity="1"
   objecttolerance="10"
   gridtolerance="10"
   guidetolerance="10"
   inkscape:pageopacity="0"
   inkscape:pageshadow="2"
   inkscape:window-width="1920"
   inkscape:window-height="1020"
   id="namedview59"
   showgrid="false"
   inkscape:pagecheckerboard="false"
   inkscape:zoom="1.2133952"
   inkscape:cx="138.47892"
   inkscape:cy="165.07959"
   inkscape:window-x="0"
   inkscape:window-y="31"
   inkscape:window-maximized="1"
   inkscape:current-layer="Layer_1" />
<style
   type="text/css"
   id="style2">
	.st0{fill:#242425;}
	.st1{fill:#FFFFFF;}
</style>
<g
   id="g30">
	<path
   class="st0"
   d="M436.2,215c-0.6,3-2,6.4-4.3,10.4l18.2,18.2c2.4-4.8,6.2-13.1,8.2-22.9c4.1-20.2-0.5-37.1-13.7-50.3   c-24.2-24.2-49.4-26.4-81.8-7.3c-7.8,4.6-16.1,10.6-24.6,17.7c-19.5,16.3-41.3,39.5-64.9,69.2c15.4,19.4,30.2,36.2,43.8,49.8   c6.3,6.3,12.4,12,18.3,17.1l16.2-16.2c-5.9-5-12.1-10.7-18.4-17c-9-9-18.5-19.5-28.4-31.2l-2.1-2.5l2.1-2.5   c18.1-21.5,35-38.6,50.1-50.9c9.6-7.8,18.6-13.8,26.7-17.7c7-3.4,13.4-5.3,19-5.6c2.7-0.2,6.9-0.1,12.1,2c5,2.1,10.2,5.8,15.7,11.3   c2.1,2.1,5,5.4,6.8,10.4C437.1,202.1,437.5,208,436.2,215L436.2,215z"
   id="path4"
   style="fill:none" />
	<path
   class="st0"
   d="M340.9,354.7l81.5-81.5c-4.8-7.1-11.1-14-14.6-17.7L327.3,336C332.5,342.4,337.1,348.6,340.9,354.7z"
   id="path6"
   style="fill:none" />
	<path
   class="st0"
   d="M444.6,329.6c13.2-13.2,17.8-30.1,13.7-50.3c-2.8-14-9.1-24.9-10.3-26.9L382.6,187c-6,3.1-12.5,7.4-19.4,12.8   l50.1,50.1l0,0c4.1,4.3,12.1,13,17.4,21.6c3.2,5.2,5.1,9.7,5.6,13.5c1.2,6.9,0.9,12.7-0.9,17.9c-1.8,5-4.8,8.3-6.8,10.4   c-5.9,5.9-11.3,9.7-16.7,11.7c-5.5,2-10,1.8-13.3,1.4c-4.4-0.5-9.2-2-14.3-4.2l-17,17C397.5,355.7,421.5,352.7,444.6,329.6z"
   id="path8"
   style="fill:none" />
	<path
   class="st0"
   d="M303.1,64.7c5,1.8,8.3,4.8,10.4,6.8c5.9,5.9,9.7,11.3,11.7,16.7c2,5.5,1.8,10,1.4,13.3   c-0.5,4.4-2,9.2-4.2,14.3l17,17c16.4-30.3,13.3-54.4-9.7-77.4c-13.2-13.2-30.1-17.8-50.3-13.7c-14,2.8-24.9,9.1-26.9,10.3   L187,117.4c3.1,6,7.4,12.5,12.8,19.4L250,86.7l0,0c4.3-4.1,13-12.1,21.6-17.4c5.2-3.2,9.7-5.1,13.5-5.6   C292,62.6,297.9,62.9,303.1,64.7z"
   id="path10"
   style="fill:none" />
	<path
   class="st0"
   d="M170.4,55.4c-24.2,24.2-26.4,49.4-7.3,81.8c4.6,7.8,10.6,16.1,17.7,24.6c16.3,19.5,39.5,41.3,69.2,64.9   c19.4-15.4,36.2-30.2,49.8-43.8c6.3-6.3,12-12.4,17.1-18.3l-16.2-16.2c-5,5.9-10.7,12.1-17,18.4c-9,9-19.5,18.5-31.2,28.4l-2.5,2.1   l-2.5-2.1c-21.5-18.1-38.6-35-50.9-50.1c-7.8-9.6-13.8-18.6-17.7-26.7c-3.4-7-5.3-13.4-5.6-19c-0.2-2.7-0.1-6.9,2-12.1   c2.1-5,5.8-10.2,11.3-15.7c2.1-2.1,5.4-5,10.4-6.8c5.2-1.9,11.1-2.2,18-0.9l0.1,0c3,0.6,6.4,2,10.4,4.3l18.2-18.2   c-4.8-2.4-13.1-6.2-23-8.2C200.5,37.6,183.6,42.2,170.4,55.4z"
   id="path12"
   style="fill:none" />
	<path
   class="st0"
   d="M273.2,77.6c-7.1,4.8-14,11.1-17.7,14.6l80.5,80.5c6.4-5.2,12.7-9.7,18.7-13.6L273.2,77.6z"
   id="path14"
   style="fill:none" />
	<path
   class="st0"
   d="M55.4,329.6c24.2,24.2,49.4,26.4,81.8,7.3c7.8-4.6,16.1-10.6,24.6-17.7c19.5-16.3,41.3-39.5,64.9-69.2   c-15.4-19.4-30.2-36.2-43.8-49.8c-6.3-6.3-12.4-12-18.3-17.1l-16.2,16.2c5.9,5,12.1,10.7,18.4,17c9,9,18.5,19.5,28.4,31.2l2.1,2.5   l-2.1,2.5c-18.1,21.5-35,38.6-50.1,50.9c-9.6,7.8-18.6,13.8-26.7,17.7c-7,3.4-13.4,5.3-19,5.6c-2.7,0.2-6.9,0.1-12.1-2   c-5-2.1-10.2-5.8-15.7-11.3c-2.1-2.1-5-5.4-6.8-10.4c-1.9-5.2-2.2-11.1-0.9-18l0-0.1c0.6-3,2-6.4,4.3-10.4l-18.2-18.2   c-2.4,4.8-6.2,13.1-8.2,23C37.6,299.5,42.2,316.4,55.4,329.6z"
   id="path16"
   style="fill:none" />
	<path
   class="st0"
   d="M86.7,250L86.7,250c-4.1-4.4-12-13.1-17.3-21.6c-3.2-5.2-5.1-9.7-5.6-13.5c-1.2-6.9-0.9-12.7,0.9-17.9   c1.8-5,4.8-8.3,6.8-10.4c5.9-5.9,11.3-9.7,16.7-11.7c5.5-2,10-1.8,13.3-1.4c4.4,0.5,9.2,2,14.3,4.2l17-17   c-30.3-16.4-54.4-13.3-77.4,9.7c-13.2,13.2-17.8,30.1-13.7,50.3c2.8,14,9.1,24.9,10.3,26.9l65.4,65.4c6-3.1,12.5-7.4,19.4-12.8   L86.7,250z"
   id="path18"
   style="fill:none" />
	<path
   class="st0"
   d="M92.2,244.5l80.5-80.5c-5.2-6.4-9.7-12.7-13.6-18.7l-81.5,81.5C82.4,233.9,88.6,240.8,92.2,244.5z"
   id="path20"
   style="fill:none" />
	<path
   class="st0"
   d="M329.6,444.6c24.2-24.2,26.4-49.4,7.3-81.8c-4.6-7.8-10.6-16.1-17.7-24.6c-16.3-19.5-39.5-41.3-69.2-64.9   c-19.4,15.4-36.2,30.2-49.8,43.8c-6.3,6.3-12,12.4-17.1,18.3l16.2,16.2c5-5.9,10.7-12.1,17-18.4c9-9,19.5-18.5,31.2-28.4l2.5-2.1   l2.5,2.1c21.5,18.1,38.6,35,50.9,50.1c7.8,9.6,13.8,18.6,17.7,26.7c3.4,7,5.3,13.4,5.6,19c0.2,2.7,0.1,6.9-2,12.1   c-2.1,5-5.8,10.2-11.3,15.7c-2.1,2.1-5.4,5-10.4,6.8c-5.2,1.9-11.1,2.2-18,0.9l-0.1,0c-3-0.6-6.4-2-10.4-4.3l-18.2,18.2   c4.7,2.4,13.1,6.1,22.9,8.2C299.4,462.4,316.4,457.8,329.6,444.6z"
   id="path22"
   style="fill:none" />
	<path
   class="st0"
   d="M244.5,407.8L164,327.3c-6.4,5.2-12.7,9.7-18.7,13.6l81.5,81.5C233.9,417.6,240.8,411.4,244.5,407.8z"
   id="path24"
   style="fill:none" />
	<path
   id="path26"
   d="m 207.09961,7.4003906 c -22.9,0 -43.60039,8.5988284 -59.90039,24.7988284 -17.6,17.6 -27.49844,37.201562 -29.39844,58.101562 C 116.90078,100.20078 117.8,110.2 120.5,120.5 c -7.7,-2 -15.30078,-3 -22.800781,-3 -23.8,0 -45.8,9.99922 -65.5,29.69922 -20.9,20.9 -28.899219,49.30156 -22.699219,80.10156 1.8,8.7 4.499609,16.49922 7.099609,22.69922 -2.6,6.3 -5.299609,14.10078 -7.099609,22.80078 -6.2,30.8 1.799219,59.19961 22.699219,80.09961 19.7,19.7 41.7,29.69922 65.5,29.69922 7.500001,0 15.100781,-1 22.800781,-3 -2.9,11.3 -3.70078,22.30117 -2.30078,33.20117 2.5,19.8 12.3,38.29961 29,55.09961 16.2,16.2 36.90078,24.79883 59.80078,24.79883 6.6,0 13.39922,-0.69961 20.19922,-2.09961 8.7,-1.8 16.50117,-4.39961 22.70117,-7.09961 6.3,2.6 13.99922,5.29961 22.69922,7.09961 6.9,1.4 13.70078,2.09961 20.30078,2.09961 22.9,0 43.60039,-8.59883 59.90039,-24.79883 17.6,-17.6 27.49844,-37.19961 29.39844,-58.09961 0.9,-9.9 7.8e-4,-19.90117 -2.69922,-30.20117 7.7,2 15.30078,3 22.80078,3 23.8,0 45.8,-9.99922 65.5,-29.69922 20.9,-20.9 28.99922,-49.29961 22.69922,-80.09961 -1.7,-8.8 -4.39961,-16.50078 -7.09961,-22.80078 2.6,-6.3 5.29961,-13.99922 7.09961,-22.69922 6.3,-30.8 -1.79922,-59.20156 -22.69922,-80.10156 -19.7,-19.7 -41.7,-29.69922 -65.5,-29.69922 -7.5,0 -15.10078,1 -22.80078,3 2.9,-11.3 3.70078,-22.299219 2.30078,-33.199219 -2.5,-19.8 -12.3,-38.301562 -29,-55.101562 C 336.60078,15.899219 315.9,7.4003906 293,7.4003906 286.4,7.4003906 279.60078,8.1 272.80078,9.5 c -8.7,1.8 -16.50117,4.499609 -22.70117,7.099609 -6.3,-2.6 -14.09883,-5.299609 -22.79883,-7.099609 -6.9,-1.4 -13.70117,-2.0996094 -20.20117,-2.0996094 z m 86.82617,32.8535154 c 13.89375,0.182813 25.87344,5.246485 35.77344,15.146485 23,23 26.10117,47.100389 9.70117,77.400389 l -17,-17 c 2.2,-5.1 3.69922,-9.90078 4.19922,-14.30078 0.4,-3.3 0.59961,-7.800781 -1.40039,-13.300781 C 323.19922,82.799219 319.4,77.4 313.5,71.5 c -2.1,-2 -5.40039,-5.000781 -10.40039,-6.800781 -5.2,-1.8 -11.1,-2.1 -18,-1 -3.8,0.5 -8.3,2.401562 -13.5,5.601562 -8.6,5.3 -17.29961,13.298438 -21.59961,17.398438 l -50.19922,50.101561 c -5.4,-6.9 -9.70078,-13.40039 -12.80078,-19.40039 L 252.5,52 c 2,-1.2 12.90039,-7.500781 26.90039,-10.300781 5.05,-1.025 9.89414,-1.50625 14.52539,-1.445313 z m -87.75,0.04297 c 4.63125,-0.04687 9.47344,0.453906 14.52344,1.503906 9.9,2 18.2,5.799219 23,8.199219 L 225.5,68.199219 c -4,-2.3 -7.40039,-3.698828 -10.40039,-4.298828 H 215 c -6.9,-1.3 -12.8,-0.99961 -18,0.90039 -5,1.8 -8.30039,4.698828 -10.40039,6.798828 -5.5,5.5 -9.19883,10.701172 -11.29883,15.701172 -2.1,5.2 -2.2,9.39961 -2,12.09961 0.3,5.599999 2.19961,11.999999 5.59961,18.999999 3.9,8.1 9.89922,17.09922 17.69922,26.69922 12.3,15.1 29.40039,31.99961 50.90039,50.09961 l 2.5,2.10156 2.5,-2.10156 c 11.7,-9.9 22.19922,-19.39844 31.19922,-28.39844 6.3,-6.3 12,-12.50039 17,-18.40039 l 16.20117,16.19922 c -5.1,5.9 -10.79961,12.00078 -17.09961,18.30078 -13.6,13.6 -30.40078,28.39883 -49.80078,43.79883 -29.7,-23.6 -52.89922,-45.39844 -69.19922,-64.89844 -7.1,-8.5 -13.10117,-16.80156 -17.70117,-24.60156 -19.1,-32.4 -16.89922,-57.598829 7.30078,-81.798829 9.9,-9.9 21.88164,-14.962891 35.77539,-15.103516 z m 67.02344,37.302734 81.5,81.500001 c -6,3.9 -12.29922,8.39961 -18.69922,13.59961 L 255.5,92.199219 c 3.7,-3.5 10.59922,-9.79961 17.69922,-14.59961 z M 159.09961,145.30078 c 3.9,6 8.39961,12.29922 13.59961,18.69922 l -80.500001,80.5 c -3.6,-3.7 -9.79961,-10.59922 -14.59961,-17.69922 z m 242.60937,5.01953 c 15.34878,-0.18479 29.27813,6.46758 42.89063,20.08008 13.2,13.2 17.80117,30.09883 13.70117,50.29883 -2,9.8 -5.80117,18.10039 -8.20117,22.90039 l -18.19922,-18.19922 c 2.3,-4 3.69883,-7.40039 4.29883,-10.40039 1.3,-7 0.9,-12.9 -1,-18 -1.8,-5 -4.69883,-8.30039 -6.79883,-10.40039 -5.5,-5.5 -10.70117,-9.19883 -15.70117,-11.29883 -5.2,-2.1 -9.39961,-2.2 -12.09961,-2 -5.6,0.3 -12,2.19961 -19,5.59961 -8.1,3.9 -17.09922,9.89922 -26.69922,17.69922 -15.1,12.3 -31.99961,29.40039 -50.09961,50.90039 l -2.10156,2.5 2.10156,2.5 c 9.9,11.7 19.39844,22.19922 28.39844,31.19922 6.3,6.3 12.50039,12 18.40039,17 l -16.19922,16.20117 c -5.9,-5.1 -12.00078,-10.79961 -18.30078,-17.09961 -13.6,-13.6 -28.39883,-30.40078 -43.79883,-49.80078 23.6,-29.7 45.39844,-52.89922 64.89844,-69.19922 8.5,-7.1 16.80156,-13.10117 24.60156,-17.70117 14.175,-8.35625 26.97026,-12.63557 38.9082,-12.7793 z m -303.109371,0.0742 c 10.604831,0.19916 21.891801,3.64219 34.201171,10.30469 l -17,17 C 110.70078,175.49922 105.9,174 101.5,173.5 c -3.3,-0.4 -7.800781,-0.59961 -13.300781,1.40039 -5.4,2 -10.799219,5.79922 -16.699219,11.69922 -2,2.1 -5.000781,5.40039 -6.800781,10.40039 -1.8,5.2 -2.098438,11.00039 -0.898438,17.90039 0.5,3.8 2.39961,8.3 5.59961,13.5 5.3,8.5 13.198828,17.19961 17.298828,21.59961 l 50.101561,50.19922 c -6.9,5.4 -13.40039,9.70078 -19.40039,12.80078 L 75.618359,271.21797 52,247.59961 c -1.2,-2 -7.500781,-12.90039 -10.300781,-26.90039 -4.1,-20.2 0.501172,-37.09883 13.701172,-50.29883 13.65625,-13.65625 27.69985,-20.29694 43.199218,-20.00586 z m 66.000001,32.70508 c 5.9,5.1 12.00078,10.79961 18.30078,17.09961 13.6,13.6 28.39883,30.40078 43.79883,49.80078 -23.6,29.7 -45.39844,52.89922 -64.89844,69.19922 -8.5,7.1 -16.80156,13.10117 -24.60156,17.70117 -32.4,19.1 -57.598829,16.89922 -81.798829,-7.30078 -13.2,-13.2 -17.79961,-30.09883 -13.59961,-50.29883 2,-9.9 5.799219,-18.2 8.199219,-23 L 68.199219,274.5 c -2.3,4 -3.698828,7.40039 -4.298828,10.40039 V 285 c -1.3,6.9 -0.99961,12.8 0.90039,18 1.8,5 4.698828,8.30039 6.798828,10.40039 5.5,5.5 10.701172,9.19883 15.701172,11.29883 5.2,2.1 9.39961,2.2 12.09961,2 5.599999,-0.3 11.999999,-2.19961 18.999999,-5.59961 8.1,-3.9 17.09922,-9.89922 26.69922,-17.69922 15.1,-12.3 31.99961,-29.40039 50.09961,-50.90039 l 2.10156,-2.5 -2.10156,-2.5 c -9.9,-11.7 -19.39844,-22.19922 -28.39844,-31.19922 -6.3,-6.3 -12.50039,-12 -18.40039,-17 z M 382.59961,187 448,252.40039 c 1.2,2 7.50078,12.90039 10.30078,26.90039 4.1,20.2 -0.50117,37.09883 -13.70117,50.29883 -23.1,23.1 -47.09883,26.09961 -77.29883,9.59961 l 17,-17 c 5.1,2.2 9.89883,3.70117 14.29883,4.20117 3.3,0.4 7.80078,0.59961 13.30078,-1.40039 5.4,-2 10.79922,-5.79922 16.69922,-11.69922 2,-2.1 5.00078,-5.40039 6.80078,-10.40039 1.8,-5.2 2.10039,-11.00039 0.90039,-17.90039 -0.5,-3.8 -2.40156,-8.3 -5.60156,-13.5 -5.3,-8.6 -13.29844,-17.29961 -17.39844,-21.59961 l -50.10156,-50.09961 c 6.9,-5.4 13.40039,-9.70078 19.40039,-12.80078 z m 25.20117,68.5 c 3.5,3.7 9.79961,10.59922 14.59961,17.69922 l -81.5,81.5 c -3.8,-6.1 -8.39961,-12.29922 -13.59961,-18.69922 z M 250,273.30078 c 29.7,23.6 52.89922,45.39844 69.19922,64.89844 7.1,8.5 13.10117,16.80156 17.70117,24.60156 19.1,32.4 16.89922,57.59883 -7.30078,81.79883 -13.2,13.2 -30.20039,17.79961 -50.40039,13.59961 -9.8,-2.1 -18.19844,-5.79922 -22.89844,-8.19922 L 274.5,431.80078 c 4,2.3 7.40039,3.69883 10.40039,4.29883 H 285 c 6.9,1.3 12.8,0.99961 18,-0.90039 5,-1.8 8.30039,-4.69883 10.40039,-6.79883 5.5,-5.5 9.19883,-10.70117 11.29883,-15.70117 2.1,-5.2 2.2,-9.39961 2,-12.09961 -0.3,-5.6 -2.19961,-12 -5.59961,-19 -3.9,-8.1 -9.89922,-17.09922 -17.69922,-26.69922 -12.3,-15.1 -29.40039,-31.99961 -50.90039,-50.09961 l -2.5,-2.10156 -2.5,2.10156 c -11.7,9.9 -22.19922,19.39844 -31.19922,28.39844 -6.3,6.3 -12,12.50039 -17,18.40039 l -16.20117,-16.19922 c 5.1,-5.9 10.79961,-12.00078 17.09961,-18.30078 13.6,-13.6 30.40078,-28.39883 49.80078,-43.79883 z m -86,54 80.5,80.5 c -3.7,3.6 -10.59922,9.79961 -17.69922,14.59961 l -81.5,-81.5 c 6,-3.9 12.29922,-8.39961 18.69922,-13.59961 z m 136.19922,35.89844 c 5.4,6.9 9.70078,13.40039 12.80078,19.40039 L 247.59961,448 c -2,1.2 -12.90039,7.50078 -26.90039,10.30078 -20.2,4.1 -37.09883,-0.50117 -50.29883,-13.70117 -23.1,-23.1 -26.10117,-47.09883 -9.70117,-77.29883 l 17,17 c -2.2,5.1 -3.69922,9.89883 -4.19922,14.29883 -0.4,3.3 -0.59961,7.80078 1.40039,13.30078 2,5.4 5.79922,10.79922 11.69922,16.69922 2.1,2 5.40039,5.00078 10.40039,6.80078 5.2,1.8 11.00039,2.10039 17.90039,0.90039 3.8,-0.5 8.3,-2.40156 13.5,-5.60156 8.6,-5.3 17.29961,-13.29844 21.59961,-17.39844 z"
   sodipodi:nodetypes="scscsscccsscccscccscscsscccsscccscccssscccccccccccccssccccccscccccccsccscccssccccccccccsscccccscccccccsccscccssccccccccccccccsscscccsccccccscccccccscccccscccccccccccccccccccsccccccscccccccsccsccccccccccscccccccccc" />
	<path
   class="st0"
   d="M170.4,444.6c13.2,13.2,30.1,17.8,50.3,13.7c14-2.8,24.9-9.1,26.9-10.3l65.4-65.4c-3.1-6-7.4-12.5-12.8-19.4   L250,413.3l0,0c-4.3,4.1-13,12.1-21.6,17.4c-5.2,3.2-9.7,5.1-13.5,5.6c-6.9,1.2-12.7,0.9-17.9-0.9c-5-1.8-8.3-4.8-10.4-6.8   c-5.9-5.9-9.7-11.3-11.7-16.7c-2-5.5-1.8-10-1.4-13.3c0.5-4.4,2-9.2,4.2-14.3l-17-17C144.3,397.5,147.3,421.5,170.4,444.6z"
   id="path28"
   style="fill:none" />
</g>
<g
   id="g56"
   style="fill:#ffffff">
	
	
	
	
	
	
	
	
	
	
	
	
</g>
</svg>
