<?xml version="1.0" encoding="utf-8"?>
<!-- Generator: Adobe Illustrator 25.3.1, SVG Export Plug-In . SVG Version: 6.00 Build 0)  -->
<svg version="1.1" id="Layer_1" xmlns="http://www.w3.org/2000/svg" xmlns:xlink="http://www.w3.org/1999/xlink" x="0px" y="0px"
	 viewBox="0 0 500 500" style="enable-background:new 0 0 500 500;" xml:space="preserve">
<style type="text/css">
	.st0{fill:#242425;}
	.st1{fill:#FFFFFF;}
</style>
<g>
	<path class="st0" d="M436.2,215c-0.6,3-2,6.4-4.3,10.4l18.2,18.2c2.4-4.8,6.2-13.1,8.2-22.9c4.1-20.2-0.5-37.1-13.7-50.3
		c-24.2-24.2-49.4-26.4-81.8-7.3c-7.8,4.6-16.1,10.6-24.6,17.7c-19.5,16.3-41.3,39.5-64.9,69.2c15.4,19.4,30.2,36.2,43.8,49.8
		c6.3,6.3,12.4,12,18.3,17.1l16.2-16.2c-5.9-5-12.1-10.7-18.4-17c-9-9-18.5-19.5-28.4-31.2l-2.1-2.5l2.1-2.5
		c18.1-21.5,35-38.6,50.1-50.9c9.6-7.8,18.6-13.8,26.7-17.7c7-3.4,13.4-5.3,19-5.6c2.7-0.2,6.9-0.1,12.1,2c5,2.1,10.2,5.8,15.7,11.3
		c2.1,2.1,5,5.4,6.8,10.4C437.1,202.1,437.5,208,436.2,215L436.2,215z"/>
	<path class="st0" d="M340.9,354.7l81.5-81.5c-4.8-7.1-11.1-14-14.6-17.7L327.3,336C332.5,342.4,337.1,348.6,340.9,354.7z"/>
	<path class="st0" d="M444.6,329.6c13.2-13.2,17.8-30.1,13.7-50.3c-2.8-14-9.1-24.9-10.3-26.9L382.6,187c-6,3.1-12.5,7.4-19.4,12.8
		l50.1,50.1l0,0c4.1,4.3,12.1,13,17.4,21.6c3.2,5.2,5.1,9.7,5.6,13.5c1.2,6.9,0.9,12.7-0.9,17.9c-1.8,5-4.8,8.3-6.8,10.4
		c-5.9,5.9-11.3,9.7-16.7,11.7c-5.5,2-10,1.8-13.3,1.4c-4.4-0.5-9.2-2-14.3-4.2l-17,17C397.5,355.7,421.5,352.7,444.6,329.6z"/>
	<path class="st0" d="M303.1,64.7c5,1.8,8.3,4.8,10.4,6.8c5.9,5.9,9.7,11.3,11.7,16.7c2,5.5,1.8,10,1.4,13.3
		c-0.5,4.4-2,9.2-4.2,14.3l17,17c16.4-30.3,13.3-54.4-9.7-77.4c-13.2-13.2-30.1-17.8-50.3-13.7c-14,2.8-24.9,9.1-26.9,10.3
		L187,117.4c3.1,6,7.4,12.5,12.8,19.4L250,86.7l0,0c4.3-4.1,13-12.1,21.6-17.4c5.2-3.2,9.7-5.1,13.5-5.6
		C292,62.6,297.9,62.9,303.1,64.7z"/>
	<path class="st0" d="M170.4,55.4c-24.2,24.2-26.4,49.4-7.3,81.8c4.6,7.8,10.6,16.1,17.7,24.6c16.3,19.5,39.5,41.3,69.2,64.9
		c19.4-15.4,36.2-30.2,49.8-43.8c6.3-6.3,12-12.4,17.1-18.3l-16.2-16.2c-5,5.9-10.7,12.1-17,18.4c-9,9-19.5,18.5-31.2,28.4l-2.5,2.1
		l-2.5-2.1c-21.5-18.1-38.6-35-50.9-50.1c-7.8-9.6-13.8-18.6-17.7-26.7c-3.4-7-5.3-13.4-5.6-19c-0.2-2.7-0.1-6.9,2-12.1
		c2.1-5,5.8-10.2,11.3-15.7c2.1-2.1,5.4-5,10.4-6.8c5.2-1.9,11.1-2.2,18-0.9l0.1,0c3,0.6,6.4,2,10.4,4.3l18.2-18.2
		c-4.8-2.4-13.1-6.2-23-8.2C200.5,37.6,183.6,42.2,170.4,55.4z"/>
	<path class="st0" d="M273.2,77.6c-7.1,4.8-14,11.1-17.7,14.6l80.5,80.5c6.4-5.2,12.7-9.7,18.7-13.6L273.2,77.6z"/>
	<path class="st0" d="M55.4,329.6c24.2,24.2,49.4,26.4,81.8,7.3c7.8-4.6,16.1-10.6,24.6-17.7c19.5-16.3,41.3-39.5,64.9-69.2
		c-15.4-19.4-30.2-36.2-43.8-49.8c-6.3-6.3-12.4-12-18.3-17.1l-16.2,16.2c5.9,5,12.1,10.7,18.4,17c9,9,18.5,19.5,28.4,31.2l2.1,2.5
		l-2.1,2.5c-18.1,21.5-35,38.6-50.1,50.9c-9.6,7.8-18.6,13.8-26.7,17.7c-7,3.4-13.4,5.3-19,5.6c-2.7,0.2-6.9,0.1-12.1-2
		c-5-2.1-10.2-5.8-15.7-11.3c-2.1-2.1-5-5.4-6.8-10.4c-1.9-5.2-2.2-11.1-0.9-18l0-0.1c0.6-3,2-6.4,4.3-10.4l-18.2-18.2
		c-2.4,4.8-6.2,13.1-8.2,23C37.6,299.5,42.2,316.4,55.4,329.6z"/>
	<path class="st0" d="M86.7,250L86.7,250c-4.1-4.4-12-13.1-17.3-21.6c-3.2-5.2-5.1-9.7-5.6-13.5c-1.2-6.9-0.9-12.7,0.9-17.9
		c1.8-5,4.8-8.3,6.8-10.4c5.9-5.9,11.3-9.7,16.7-11.7c5.5-2,10-1.8,13.3-1.4c4.4,0.5,9.2,2,14.3,4.2l17-17
		c-30.3-16.4-54.4-13.3-77.4,9.7c-13.2,13.2-17.8,30.1-13.7,50.3c2.8,14,9.1,24.9,10.3,26.9l65.4,65.4c6-3.1,12.5-7.4,19.4-12.8
		L86.7,250z"/>
	<path class="st0" d="M92.2,244.5l80.5-80.5c-5.2-6.4-9.7-12.7-13.6-18.7l-81.5,81.5C82.4,233.9,88.6,240.8,92.2,244.5z"/>
	<path class="st0" d="M329.6,444.6c24.2-24.2,26.4-49.4,7.3-81.8c-4.6-7.8-10.6-16.1-17.7-24.6c-16.3-19.5-39.5-41.3-69.2-64.9
		c-19.4,15.4-36.2,30.2-49.8,43.8c-6.3,6.3-12,12.4-17.1,18.3l16.2,16.2c5-5.9,10.7-12.1,17-18.4c9-9,19.5-18.5,31.2-28.4l2.5-2.1
		l2.5,2.1c21.5,18.1,38.6,35,50.9,50.1c7.8,9.6,13.8,18.6,17.7,26.7c3.4,7,5.3,13.4,5.6,19c0.2,2.7,0.1,6.9-2,12.1
		c-2.1,5-5.8,10.2-11.3,15.7c-2.1,2.1-5.4,5-10.4,6.8c-5.2,1.9-11.1,2.2-18,0.9l-0.1,0c-3-0.6-6.4-2-10.4-4.3l-18.2,18.2
		c4.7,2.4,13.1,6.1,22.9,8.2C299.4,462.4,316.4,457.8,329.6,444.6z"/>
	<path class="st0" d="M244.5,407.8L164,327.3c-6.4,5.2-12.7,9.7-18.7,13.6l81.5,81.5C233.9,417.6,240.8,411.4,244.5,407.8z"/>
	<path class="st0" d="M483.4,250c2.6-6.3,5.3-14,7.1-22.7c6.3-30.8-1.8-59.2-22.7-80.1c-19.7-19.7-41.7-29.7-65.5-29.7
		c-7.5,0-15.1,1-22.8,3c2.9-11.3,3.7-22.3,2.3-33.2c-2.5-19.8-12.3-38.3-29-55.1C336.6,15.9,315.9,7.4,293,7.4
		c-6.6,0-13.4,0.7-20.2,2.1c-8.7,1.8-16.5,4.5-22.7,7.1c-6.3-2.6-14.1-5.3-22.8-7.1c-6.9-1.4-13.7-2.1-20.2-2.1
		c-22.9,0-43.6,8.6-59.9,24.8c-17.6,17.6-27.5,37.2-29.4,58.1c-0.9,9.9,0,19.9,2.7,30.2c-7.7-2-15.3-3-22.8-3
		c-23.8,0-45.8,10-65.5,29.7c-20.9,20.9-28.9,49.3-22.7,80.1c1.8,8.7,4.5,16.5,7.1,22.7c-2.6,6.3-5.3,14.1-7.1,22.8
		c-6.2,30.8,1.8,59.2,22.7,80.1c19.7,19.7,41.7,29.7,65.5,29.7c0,0,0,0,0,0c7.5,0,15.1-1,22.8-3c-2.9,11.3-3.7,22.3-2.3,33.2
		c2.5,19.8,12.3,38.3,29,55.1c16.2,16.2,36.9,24.8,59.8,24.8c0,0,0,0,0,0c6.6,0,13.4-0.7,20.2-2.1c8.7-1.8,16.5-4.4,22.7-7.1
		c6.3,2.6,14,5.3,22.7,7.1c6.9,1.4,13.7,2.1,20.3,2.1c0,0,0,0,0,0c22.9,0,43.6-8.6,59.9-24.8c17.6-17.6,27.5-37.2,29.4-58.1
		c0.9-9.9,0-19.9-2.7-30.2c7.7,2,15.3,3,22.8,3c0,0,0,0,0,0c23.8,0,45.8-10,65.5-29.7c20.9-20.9,29-49.3,22.7-80.1
		C488.8,264,486.1,256.3,483.4,250z"/>
	<path class="st0" d="M170.4,444.6c13.2,13.2,30.1,17.8,50.3,13.7c14-2.8,24.9-9.1,26.9-10.3l65.4-65.4c-3.1-6-7.4-12.5-12.8-19.4
		L250,413.3l0,0c-4.3,4.1-13,12.1-21.6,17.4c-5.2,3.2-9.7,5.1-13.5,5.6c-6.9,1.2-12.7,0.9-17.9-0.9c-5-1.8-8.3-4.8-10.4-6.8
		c-5.9-5.9-9.7-11.3-11.7-16.7c-2-5.5-1.8-10-1.4-13.3c0.5-4.4,2-9.2,4.2-14.3l-17-17C144.3,397.5,147.3,421.5,170.4,444.6z"/>
</g>
<g>
	<path class="st1" d="M436.2,215c-0.6,3-2,6.4-4.3,10.4l18.2,18.2c2.4-4.8,6.2-13.1,8.2-22.9c4.1-20.2-0.5-37.1-13.7-50.3
		c-24.2-24.2-49.4-26.4-81.8-7.3c-7.8,4.6-16.1,10.6-24.6,17.7c-19.5,16.3-41.3,39.5-64.9,69.2c15.4,19.4,30.2,36.2,43.8,49.8
		c6.3,6.3,12.4,12,18.3,17.1l16.2-16.2c-5.9-5-12.1-10.7-18.4-17c-9-9-18.5-19.5-28.4-31.2l-2.1-2.5l2.1-2.5
		c18.1-21.5,35-38.6,50.1-50.9c9.6-7.8,18.6-13.8,26.7-17.7c7-3.4,13.4-5.3,19-5.6c2.7-0.2,6.9-0.1,12.1,2c5,2.1,10.2,5.8,15.7,11.3
		c2.1,2.1,5,5.4,6.8,10.4C437.1,202.1,437.5,208,436.2,215L436.2,215z"/>
	<path class="st1" d="M340.9,354.7l81.5-81.5c-4.8-7.1-11.1-14-14.6-17.7L327.3,336C332.5,342.4,337.1,348.6,340.9,354.7z"/>
	<path class="st1" d="M444.6,329.6c13.2-13.2,17.8-30.1,13.7-50.3c-2.8-14-9.1-24.9-10.3-26.9L382.6,187c-6,3.1-12.5,7.4-19.4,12.8
		l50.1,50.1l0,0c4.1,4.3,12.1,13,17.4,21.6c3.2,5.2,5.1,9.7,5.6,13.5c1.2,6.9,0.9,12.7-0.9,17.9c-1.8,5-4.8,8.3-6.8,10.4
		c-5.9,5.9-11.3,9.7-16.7,11.7c-5.5,2-10,1.8-13.3,1.4c-4.4-0.5-9.2-2-14.3-4.2l-17,17C397.5,355.7,421.5,352.7,444.6,329.6z"/>
	<path class="st1" d="M303.1,64.7c5,1.8,8.3,4.8,10.4,6.8c5.9,5.9,9.7,11.3,11.7,16.7c2,5.5,1.8,10,1.4,13.3
		c-0.5,4.4-2,9.2-4.2,14.3l17,17c16.4-30.3,13.3-54.4-9.7-77.4c-13.2-13.2-30.1-17.8-50.3-13.7c-14,2.8-24.9,9.1-26.9,10.3
		L187,117.4c3.1,6,7.4,12.5,12.8,19.4L250,86.7l0,0c4.3-4.1,13-12.1,21.6-17.4c5.2-3.2,9.7-5.1,13.5-5.6
		C292,62.6,297.9,62.9,303.1,64.7z"/>
	<path class="st1" d="M170.4,55.4c-24.2,24.2-26.4,49.4-7.3,81.8c4.6,7.8,10.6,16.1,17.7,24.6c16.3,19.5,39.5,41.3,69.2,64.9
		c19.4-15.4,36.2-30.2,49.8-43.8c6.3-6.3,12-12.4,17.1-18.3l-16.2-16.2c-5,5.9-10.7,12.1-17,18.4c-9,9-19.5,18.5-31.2,28.4l-2.5,2.1
		l-2.5-2.1c-21.5-18.1-38.6-35-50.9-50.1c-7.8-9.6-13.8-18.6-17.7-26.7c-3.4-7-5.3-13.4-5.6-19c-0.2-2.7-0.1-6.9,2-12.1
		c2.1-5,5.8-10.2,11.3-15.7c2.1-2.1,5.4-5,10.4-6.8c5.2-1.9,11.1-2.2,18-0.9l0.1,0c3,0.6,6.4,2,10.4,4.3l18.2-18.2
		c-4.8-2.4-13.1-6.2-23-8.2C200.5,37.6,183.6,42.2,170.4,55.4z"/>
	<path class="st1" d="M273.2,77.6c-7.1,4.8-14,11.1-17.7,14.6l80.5,80.5c6.4-5.2,12.7-9.7,18.7-13.6L273.2,77.6z"/>
	<path class="st1" d="M55.4,329.6c24.2,24.2,49.4,26.4,81.8,7.3c7.8-4.6,16.1-10.6,24.6-17.7c19.5-16.3,41.3-39.5,64.9-69.2
		c-15.4-19.4-30.2-36.2-43.8-49.8c-6.3-6.3-12.4-12-18.3-17.1l-16.2,16.2c5.9,5,12.1,10.7,18.4,17c9,9,18.5,19.5,28.4,31.2l2.1,2.5
		l-2.1,2.5c-18.1,21.5-35,38.6-50.1,50.9c-9.6,7.8-18.6,13.8-26.7,17.7c-7,3.4-13.4,5.3-19,5.6c-2.7,0.2-6.9,0.1-12.1-2
		c-5-2.1-10.2-5.8-15.7-11.3c-2.1-2.1-5-5.4-6.8-10.4c-1.9-5.2-2.2-11.1-0.9-18l0-0.1c0.6-3,2-6.4,4.3-10.4l-18.2-18.2
		c-2.4,4.8-6.2,13.1-8.2,23C37.6,299.5,42.2,316.4,55.4,329.6z"/>
	<path class="st1" d="M86.7,250L86.7,250c-4.1-4.4-12-13.1-17.3-21.6c-3.2-5.2-5.1-9.7-5.6-13.5c-1.2-6.9-0.9-12.7,0.9-17.9
		c1.8-5,4.8-8.3,6.8-10.4c5.9-5.9,11.3-9.7,16.7-11.7c5.5-2,10-1.8,13.3-1.4c4.4,0.5,9.2,2,14.3,4.2l17-17
		c-30.3-16.4-54.4-13.3-77.4,9.7c-13.2,13.2-17.8,30.1-13.7,50.3c2.8,14,9.1,24.9,10.3,26.9l65.4,65.4c6-3.1,12.5-7.4,19.4-12.8
		L86.7,250z"/>
	<path class="st1" d="M92.2,244.5l80.5-80.5c-5.2-6.4-9.7-12.7-13.6-18.7l-81.5,81.5C82.4,233.9,88.6,240.8,92.2,244.5z"/>
	<path class="st1" d="M329.6,444.6c24.2-24.2,26.4-49.4,7.3-81.8c-4.6-7.8-10.6-16.1-17.7-24.6c-16.3-19.5-39.5-41.3-69.2-64.9
		c-19.4,15.4-36.2,30.2-49.8,43.8c-6.3,6.3-12,12.4-17.1,18.3l16.2,16.2c5-5.9,10.7-12.1,17-18.4c9-9,19.5-18.5,31.2-28.4l2.5-2.1
		l2.5,2.1c21.5,18.1,38.6,35,50.9,50.1c7.8,9.6,13.8,18.6,17.7,26.7c3.4,7,5.3,13.4,5.6,19c0.2,2.7,0.1,6.9-2,12.1
		c-2.1,5-5.8,10.2-11.3,15.7c-2.1,2.1-5.4,5-10.4,6.8c-5.2,1.9-11.1,2.2-18,0.9l-0.1,0c-3-0.6-6.4-2-10.4-4.3l-18.2,18.2
		c4.7,2.4,13.1,6.1,22.9,8.2C299.4,462.4,316.4,457.8,329.6,444.6z"/>
	<path class="st1" d="M244.5,407.8L164,327.3c-6.4,5.2-12.7,9.7-18.7,13.6l81.5,81.5C233.9,417.6,240.8,411.4,244.5,407.8z"/>
	<path class="st1" d="M170.4,444.6c13.2,13.2,30.1,17.8,50.3,13.7c14-2.8,24.9-9.1,26.9-10.3l65.4-65.4c-3.1-6-7.4-12.5-12.8-19.4
		L250,413.3l0,0c-4.3,4.1-13,12.1-21.6,17.4c-5.2,3.2-9.7,5.1-13.5,5.6c-6.9,1.2-12.7,0.9-17.9-0.9c-5-1.8-8.3-4.8-10.4-6.8
		c-5.9-5.9-9.7-11.3-11.7-16.7c-2-5.5-1.8-10-1.4-13.3c0.5-4.4,2-9.2,4.2-14.3l-17-17C144.3,397.5,147.3,421.5,170.4,444.6z"/>
</g>
</svg>
