<?xml version="1.0" encoding="utf-8"?>
<!-- Generator: Adobe Illustrator 25.0.1, SVG Export Plug-In . SVG Version: 6.00 Build 0)  -->
<svg version="1.1" id="Layer_1" xmlns="http://www.w3.org/2000/svg" xmlns:xlink="http://www.w3.org/1999/xlink" x="0px" y="0px"
	 viewBox="0 0 24 24" style="enable-background:new 0 0 24 24;" xml:space="preserve">
<style type="text/css">
	.st0{fill:none;}
</style>
<path class="st0" d="M0,0h24v24H0V0z"/>
<g>
	<path d="M13.6,13.8c-1-0.2-2-0.3-2.8-0.3c-2.7,0-8,1.3-8,4v2h9.8c-0.3-0.6-0.4-1.3-0.4-2.1C12.2,15.9,12.7,14.7,13.6,13.8z"/>
	<circle cx="10.8" cy="7.4" r="4"/>
</g>
<path d="M21.1,17.9c0-0.1,0-0.3,0-0.4c0-0.2,0-0.3,0-0.4l1-0.7c0.1-0.1,0.1-0.2,0.1-0.3l-0.9-1.6c-0.1-0.1-0.2-0.1-0.3-0.1l-1.1,0.5
	c-0.2-0.2-0.5-0.3-0.8-0.4l-0.2-1.2c0-0.1-0.1-0.2-0.2-0.2h-1.8c-0.1,0-0.2,0.1-0.2,0.2l-0.2,1.2c-0.3,0.1-0.5,0.3-0.8,0.4l-1.1-0.5
	c-0.1,0-0.2,0-0.3,0.1L13.4,16c-0.1,0.1,0,0.2,0.1,0.3l1,0.7c0,0.1,0,0.3,0,0.4c0,0.1,0,0.3,0,0.4l-1,0.7c-0.1,0.1-0.1,0.2-0.1,0.3
	l0.9,1.6c0.1,0.1,0.2,0.1,0.3,0.1l1.1-0.5c0.2,0.2,0.5,0.3,0.8,0.4l0.2,1.2c0,0.1,0.1,0.2,0.2,0.2h1.8c0.1,0,0.2-0.1,0.2-0.2
	l0.2-1.2c0.3-0.1,0.5-0.3,0.8-0.4l1.1,0.5c0.1,0,0.2,0,0.3-0.1l0.9-1.6c0.1-0.1,0-0.2-0.1-0.3L21.1,17.9z M17.7,19.2
	c-0.9,0-1.7-0.8-1.7-1.7c0-0.9,0.8-1.7,1.7-1.7c0.9,0,1.7,0.8,1.7,1.7C19.4,18.4,18.7,19.2,17.7,19.2z"/>
</svg>
