<svg id="Layer_1" data-name="Layer 1" xmlns="http://www.w3.org/2000/svg" viewBox="0 0 400 400"><title>syncing</title><rect x="179.5" y="112.5" width="41" height="114"/><rect x="179.5" y="253.5" width="41" height="34"/><path d="M200,377.5a179.92,179.92,0,0,1-22.53-1.42l5.16-40.67A139.43,139.43,0,0,0,200,336.5Z"/><path d="M132.52,364.22a177.53,177.53,0,0,1-40.27-23.16l24.91-32.56a136.59,136.59,0,0,0,31,17.8ZM59.36,308.3a177.92,177.92,0,0,1-23.31-40.16l37.86-15.76a136.22,136.22,0,0,0,17.92,30.89ZM24,223.25a179.57,179.57,0,0,1,0-46.4l40.65,5.31a139.05,139.05,0,0,0,0,35.77Zm49.87-75.56L36,132a177.48,177.48,0,0,1,23.3-40.19l32.48,25A135.88,135.88,0,0,0,73.88,147.69ZM117.1,91.55,92.17,59a177.44,177.44,0,0,1,40.25-23.17L148,73.73A136.44,136.44,0,0,0,117.1,91.55Z"/><path d="M182.63,64.59l-5.16-40.67A179.92,179.92,0,0,1,200,22.5v41A139.55,139.55,0,0,0,182.63,64.59Z"/><path d="M217.37,64.59A139.55,139.55,0,0,0,200,63.5v-41a179.92,179.92,0,0,1,22.53,1.42Z"/><path d="M267.58,364.18,252,326.27a136.44,136.44,0,0,0,30.94-17.82L307.83,341A177.32,177.32,0,0,1,267.58,364.18Zm73.11-55.95-32.48-25a136.09,136.09,0,0,0,17.91-30.9L364,268A177.11,177.11,0,0,1,340.69,308.23ZM376,223.14l-40.65-5.3a139,139,0,0,0,0-35.76L376,176.75A180.23,180.23,0,0,1,377.5,200,178.41,178.41,0,0,1,376,223.14Zm-49.91-75.53a136.37,136.37,0,0,0-17.92-30.88l32.47-25A177.54,177.54,0,0,1,364,131.86ZM282.85,91.5a136.72,136.72,0,0,0-31-17.8l15.6-37.92a177.75,177.75,0,0,1,40.27,23.16Z"/><path d="M200,377.5v-41a139.43,139.43,0,0,0,17.37-1.09l5.16,40.67A179.92,179.92,0,0,1,200,377.5Z"/></svg>