<svg id="Layer_1" data-name="Layer 1" xmlns="http://www.w3.org/2000/svg" viewBox="0 0 400 400"><title>syncing</title><path d="M200,377.5c-97.87,0-177.5-79.63-177.5-177.5S102.13,22.5,200,22.5v41C124.73,63.5,63.5,124.73,63.5,200S124.73,336.5,200,336.5Z"/><path d="M217.37,64.59A139.55,139.55,0,0,0,200,63.5v-41a179.92,179.92,0,0,1,22.53,1.42Z"/><path d="M267.58,364.18,252,326.27a136.44,136.44,0,0,0,30.94-17.82L307.83,341A177.32,177.32,0,0,1,267.58,364.18Zm73.11-55.95-32.48-25a136.09,136.09,0,0,0,17.91-30.9L364,268A177.33,177.33,0,0,1,340.69,308.23ZM376,223.14l-40.65-5.3a139,139,0,0,0,0-35.76L376,176.75A180.23,180.23,0,0,1,377.5,200,178.41,178.41,0,0,1,376,223.14Zm-49.91-75.53a136.37,136.37,0,0,0-17.92-30.88l32.47-25A177.54,177.54,0,0,1,364,131.86ZM282.85,91.5a136.72,136.72,0,0,0-31-17.8l15.6-37.92a177.75,177.75,0,0,1,40.27,23.16Z"/><path d="M200,377.5v-41a139.43,139.43,0,0,0,17.37-1.09l5.16,40.67A179.92,179.92,0,0,1,200,377.5Z"/><rect x="177.5" y="112.5" width="45" height="114"/><rect x="177.5" y="253.5" width="45" height="34"/></svg>