<?xml version="1.0" encoding="UTF-8" standalone="no"?>
<!-- Generator: Adobe Illustrator 24.1.1, SVG Export Plug-In . SVG Version: 6.00 Build 0)  -->

<svg
   xmlns:dc="http://purl.org/dc/elements/1.1/"
   xmlns:cc="http://creativecommons.org/ns#"
   xmlns:rdf="http://www.w3.org/1999/02/22-rdf-syntax-ns#"
   xmlns:svg="http://www.w3.org/2000/svg"
   xmlns="http://www.w3.org/2000/svg"
   xmlns:sodipodi="http://sodipodi.sourceforge.net/DTD/sodipodi-0.dtd"
   xmlns:inkscape="http://www.inkscape.org/namespaces/inkscape"
   version="1.1"
   id="Layer_1"
   x="0px"
   y="0px"
   viewBox="0 0 24 24"
   style="enable-background:new 0 0 24 24;"
   xml:space="preserve"
   sodipodi:docname="Tor_icon_error.svg"
   inkscape:version="0.92.5 (2060ec1f9f, 2020-04-08)"
   inkscape:export-filename="/home/sarah/AndroidStudioProjects/flutter_app/assets/core/Tor_icon_error.png"
   inkscape:export-xdpi="96"
   inkscape:export-ydpi="96"><metadata
   id="metadata11"><rdf:RDF><cc:Work
       rdf:about=""><dc:format>image/svg+xml</dc:format><dc:type
         rdf:resource="http://purl.org/dc/dcmitype/StillImage" /><dc:title></dc:title></cc:Work></rdf:RDF></metadata><defs
   id="defs9" /><sodipodi:namedview
   pagecolor="#ffffff"
   bordercolor="#666666"
   borderopacity="1"
   objecttolerance="10"
   gridtolerance="10"
   guidetolerance="10"
   inkscape:pageopacity="0"
   inkscape:pageshadow="2"
   inkscape:window-width="1920"
   inkscape:window-height="1015"
   id="namedview7"
   showgrid="false"
   inkscape:zoom="19.666667"
   inkscape:cx="-7.6129652"
   inkscape:cy="9.9539069"
   inkscape:window-x="0"
   inkscape:window-y="0"
   inkscape:window-maximized="1"
   inkscape:current-layer="Layer_1" />
<style
   type="text/css"
   id="style2">
	.st0{fill:#FFFFFF;}
</style>
<path
   class="st0"
   d="M 16.710183,10.167596 C 16.039799,9.58101 15.285618,9.078222 14.447638,8.659232 14.112446,8.491636 12.939274,7.5698584 13.358264,6.3128886 L 12.604082,5.9776968 c 1.089374,-1.7597577 2.597737,-3.4357173 4.357495,-5.111677 -1.424565,0.5027879 -2.681535,1.2569697 -3.687111,2.5977375 0.586586,-1.1731718 1.508363,-2.3463435 2.513939,-3.5195153 -1.424566,1.0055758 -2.597737,2.0949495 -3.351919,3.6033133 L 12.939274,1.4526057 C 12.185092,2.7933735 11.682304,4.1341411 11.43091,5.5587068 L 10.341536,5.1397169 10.17394,5.2235149 c 1.005576,1.7597577 0.502788,2.6815354 0,3.0167271 C 9.1683643,8.910626 7.8275965,9.748606 7.0734147,10.502788 5.732647,11.927354 5.313657,13.184324 5.481253,14.944081 c 0.167596,2.262545 1.7597576,4.106101 3.9385053,4.776485 0.9217777,0.335192 1.8435557,0.335192 2.7653337,0.335192 1.592161,0 3.184324,-0.41899 4.357495,-1.424566 1.25697,-1.005576 2.011152,-2.597737 2.011152,-4.189898 0,-1.592163 -0.670384,-3.184324 -1.843556,-4.273698 z m -3.016727,7.45802 c -0.0838,0.335192 -0.335192,0.754182 -0.586586,1.089374 0.08379,-0.167595 0.167596,-0.41899 0.251394,-0.670384 0.502788,-1.67596 0.670384,-2.430141 0.418989,-4.273697 0,-0.167595 -0.08379,-0.754182 -0.418989,-1.424565 -0.41899,-1.005576 -1.005576,-1.927354 -1.089373,-2.09495 -0.167597,-0.335192 -0.335193,-1.67596 -0.335193,-2.5977376 0,0.7541816 0.08379,2.2625456 0.251394,2.7653336 0.0838,0.167596 0.586586,1.005575 1.005576,2.094949 0.251394,0.670385 0.335191,1.340768 0.335191,1.592162 0.167597,0.83798 0,2.262545 -0.335191,3.603314 -0.08379,0.502787 -0.335192,1.089373 -0.670384,1.508363 0.167596,-0.251393 0.335192,-0.586586 0.41899,-1.005576 0.251394,-0.754181 0.335192,-1.759757 0.335192,-2.430141 0,-0.335192 -0.167596,-1.173172 -0.502788,-1.927354 -0.167596,-0.41899 -0.41899,-0.83798 -0.586586,-1.089373 -0.167596,-0.251395 -0.167596,-0.921779 -0.251394,-1.592163 0,0.754183 -0.08379,1.173173 0.167596,1.67596 0.08379,0.335193 0.502788,0.754183 0.670384,1.173173 0.167596,0.586585 0.335192,1.256968 0.335192,1.592161 0,0.41899 0,1.25697 -0.251394,2.178747 -0.167596,0.670384 -0.41899,1.25697 -0.921778,1.592161 0.167596,-0.251393 0.335193,-0.502787 0.335193,-0.754181 0.08379,-0.41899 0.08379,-0.754182 0.167595,-1.25697 0,-0.502787 0,-1.005576 -0.08379,-1.424566 -0.167595,-0.670384 -0.41899,-1.340767 -0.502787,-1.843555 0,0.502788 0.251393,1.173171 0.335192,1.843555 0.0838,0.502789 0,1.005576 0,1.424566 0,0.502788 -0.167596,1.424566 -0.41899,1.927354 -0.2514,-0.0838 -0.335198,-0.251394 -0.418996,-0.41899 -0.167596,-0.251394 -0.335192,-0.502788 -0.41899,-0.83798 -0.0838,-0.251394 -0.167596,-0.502788 -0.251394,-0.754181 -0.0838,-0.670384 0.0838,-1.340769 0.502788,-1.843556 0.41899,-0.586587 0.502788,-0.586587 0.586586,-1.25697 -0.167596,0.586586 -0.335192,0.670383 -0.754182,1.089373 -0.502788,0.502789 -0.502788,1.340769 -0.502788,1.927354 0,0.251395 0.0838,0.586586 0.167596,0.83798 0.0838,0.335192 0.251394,0.586586 0.335192,0.83798 0.0838,0.167596 0.251394,0.335192 0.41899,0.41899 C 10.928122,19.13398 10.425334,18.966385 10.090142,18.71499 9.3359603,18.044606 8.5817783,16.871435 8.4979804,15.865859 c -0.083798,-0.83798 0.6703839,-2.011152 1.7597576,-2.597738 0.921778,-0.502787 1.089374,-1.089373 1.25697,-2.09495 -0.251394,0.83798 -0.502788,1.508364 -1.424566,1.927354 -1.2569697,0.670384 -1.8435555,1.759757 -1.8435555,2.849131 0.083798,1.340769 0.5865858,2.262546 1.6759596,3.016729 0.2513939,0.167595 0.5865859,0.335191 0.9217779,0.502787 -1.3407679,-0.335192 -1.5083637,-0.502787 -1.9273537,-1.005576 0,0 -0.083798,-0.0838 -0.083798,-0.167596 C 8.2465865,17.625616 7.4924046,16.452445 7.2410106,15.363071 7.1572126,15.027879 7.0734147,14.608889 7.1572126,14.189899 7.6600006,12.430141 8.7493743,11.759758 9.7549501,11.005575 10.006344,10.83798 10.257738,10.670384 10.509132,10.502788 11.095718,10 11.263314,8.826828 11.43091,8.156444 c -0.251394,0.83798 -0.502788,1.927354 -1.005576,2.262546 -0.0838,0.335192 -0.335192,0.41899 -0.5865859,0.586585 -1.0893738,0.754183 -2.1787475,1.424566 -2.6815355,3.268122 -0.083798,0.502788 0,0.83798 0.083798,1.25697 0.251394,1.089374 1.0055759,2.262545 1.6759597,3.016728 l 0.083799,0.08379 C 9.2521632,18.966377 9.6711531,19.21777 10.090143,19.385366 9.7549501,19.301576 9.3359603,19.13398 9.0007683,18.966385 7.2410106,18.128405 6.0678388,16.284849 5.984041,14.860282 5.816445,11.843555 7.2410106,11.005575 8.6655763,9.832404 9.4197583,9.245818 10.425334,8.910626 11.095718,7.8212524 c 0.0838,-0.251394 0.167596,-0.7541819 0,-1.3407678 -0.0838,-0.167596 -0.335192,-0.8379798 -0.41899,-1.0055758 l 1.67596,0.7541818 c 0,0.754182 -0.08379,1.4245658 0.08379,2.0111514 0.167596,0.670384 1.005576,1.592162 1.340767,2.597738 0.586586,2.094949 0.41899,4.692687 -0.08379,6.787636 z"
   id="path4"
   style="fill:#ffffff;stroke-width:0.83797979"
   inkscape:connector-curvature="0" />
<text
   xml:space="preserve"
   style="font-style:normal;font-weight:normal;font-size:12.20475388px;line-height:1.25;font-family:sans-serif;letter-spacing:0px;word-spacing:0px;fill:#ffffff;fill-opacity:1;stroke:none;stroke-width:0.30511883;"
   x="16.967388"
   y="10.305371"
   id="text818"
   transform="scale(0.99349163,1.006551)"><tspan
     sodipodi:role="line"
     id="tspan816"
     x="16.967388"
     y="10.305371"
     style="stroke-width:0.30511883;fill:#ffffff;">!</tspan></text>
</svg>