<?xml version="1.0" encoding="UTF-8" standalone="no"?>
<!-- Generator: Adobe Illustrator 24.1.1, SVG Export Plug-In . SVG Version: 6.00 Build 0)  -->

<svg
   xmlns:dc="http://purl.org/dc/elements/1.1/"
   xmlns:cc="http://creativecommons.org/ns#"
   xmlns:rdf="http://www.w3.org/1999/02/22-rdf-syntax-ns#"
   xmlns:svg="http://www.w3.org/2000/svg"
   xmlns="http://www.w3.org/2000/svg"
   xmlns:sodipodi="http://sodipodi.sourceforge.net/DTD/sodipodi-0.dtd"
   xmlns:inkscape="http://www.inkscape.org/namespaces/inkscape"
   version="1.1"
   id="Layer_1"
   x="0px"
   y="0px"
   viewBox="0 0 24 24"
   style="enable-background:new 0 0 24 24;"
   xml:space="preserve"
   sodipodi:docname="Tor_icon.svg"
   inkscape:version="0.92.5 (2060ec1f9f, 2020-04-08)"
   inkscape:export-filename="/home/sarah/AndroidStudioProjects/flutter_app/assets/core/Tor_icon.png"
   inkscape:export-xdpi="128"
   inkscape:export-ydpi="128"><metadata
   id="metadata11"><rdf:RDF><cc:Work
       rdf:about=""><dc:format>image/svg+xml</dc:format><dc:type
         rdf:resource="http://purl.org/dc/dcmitype/StillImage" /></cc:Work></rdf:RDF></metadata><defs
   id="defs9" /><sodipodi:namedview
   pagecolor="#ffffff"
   bordercolor="#666666"
   borderopacity="1"
   objecttolerance="10"
   gridtolerance="10"
   guidetolerance="10"
   inkscape:pageopacity="0"
   inkscape:pageshadow="2"
   inkscape:window-width="1920"
   inkscape:window-height="1015"
   id="namedview7"
   showgrid="false"
   inkscape:zoom="9.8333333"
   inkscape:cx="21.711864"
   inkscape:cy="6.7118644"
   inkscape:window-x="0"
   inkscape:window-y="0"
   inkscape:window-maximized="1"
   inkscape:current-layer="Layer_1" />
<style
   type="text/css"
   id="style2">
	.st0{fill:#FFFFFF;}
</style>
<path
   class="st0"
   d="M 17.605322,12.023528 C 16.833243,11.347959 15.964655,10.7689 14.999557,10.286351 14.613517,10.093331 13.262379,9.0317227 13.744928,7.584075 L 12.87634,7.1980357 C 14.130968,5.1713289 15.868144,3.241132 17.894852,1.310935 16.254185,1.8899941 14.806537,2.7585827 13.648419,4.3027403 14.323988,2.9516024 15.385595,1.6004646 16.543713,0.24932675 14.903046,1.4074449 13.551909,2.6620728 12.68332,4.3992502 L 13.262379,1.986504 C 12.39379,3.5306616 11.814731,5.074819 11.525201,6.7154864 l -1.254628,-0.4825492 -0.19302,0.09651 c 1.158119,2.0267068 0.57906,3.088315 0,3.4743541 C 8.9194351,10.57588 7.3752775,11.540979 6.5066889,12.409568 4.9625314,14.050236 4.4799821,15.497884 4.6730018,17.52459 c 0.1930197,2.605765 2.0267067,4.728982 4.5359629,5.501061 1.0616083,0.386039 2.1232173,0.386039 3.1848253,0.386039 1.833687,0 3.667375,-0.482549 5.018512,-1.640667 1.447648,-1.158119 2.316237,-2.991805 2.316237,-4.825491 0,-1.833689 -0.772079,-3.667375 -2.123217,-4.922004 z m -3.474354,8.589376 c -0.09651,0.38604 -0.38604,0.868589 -0.675569,1.254629 0.0965,-0.193019 0.19302,-0.48255 0.289529,-0.772079 0.57906,-1.930198 0.772079,-2.798785 0.482549,-4.922002 0,-0.193019 -0.0965,-0.868589 -0.482549,-1.640667 -0.482549,-1.158118 -1.158118,-2.219727 -1.254627,-2.412747 -0.193021,-0.386039 -0.38604,-1.930197 -0.38604,-2.9918054 0,0.8685884 0.0965,2.6057664 0.289529,3.1848254 0.09651,0.19302 0.675569,1.158117 1.158119,2.412746 0.289529,0.77208 0.386038,1.544157 0.386038,1.833687 0.193021,0.965099 0,2.605765 -0.386038,4.149924 -0.0965,0.579058 -0.38604,1.254627 -0.772079,1.737177 0.19302,-0.289529 0.386039,-0.675569 0.482549,-1.158119 0.28953,-0.868587 0.38604,-2.026706 0.38604,-2.798785 0,-0.386039 -0.19302,-1.351138 -0.57906,-2.219727 -0.193019,-0.482549 -0.482549,-0.965098 -0.675569,-1.254627 -0.193019,-0.28953 -0.193019,-1.061609 -0.289529,-1.833688 0,0.86859 -0.0965,1.351139 0.193019,1.930197 0.0965,0.386041 0.57906,0.86859 0.772079,1.351139 0.19302,0.675568 0.38604,1.447646 0.38604,1.833687 0,0.482549 0,1.447648 -0.28953,2.509255 -0.193019,0.772079 -0.482549,1.447648 -1.061608,1.833686 0.193019,-0.289528 0.38604,-0.579058 0.38604,-0.868587 0.0965,-0.48255 0.0965,-0.868589 0.193019,-1.447648 0,-0.579058 0,-1.158119 -0.0965,-1.640668 -0.193018,-0.772079 -0.482549,-1.544157 -0.579058,-2.123216 0,0.579059 0.289529,1.351137 0.38604,2.123216 0.09651,0.57906 0,1.158118 0,1.640668 0,0.579059 -0.19302,1.640667 -0.48255,2.219727 -0.289536,-0.09651 -0.386046,-0.28953 -0.482556,-0.48255 -0.19302,-0.289529 -0.386039,-0.579059 -0.482549,-0.965098 -0.09651,-0.28953 -0.19302,-0.57906 -0.28953,-0.868588 -0.09651,-0.772079 0.09651,-1.544159 0.579059,-2.123217 0.48255,-0.67557 0.57906,-0.67557 0.675569,-1.447648 -0.193019,0.675569 -0.386039,0.772078 -0.868588,1.254627 -0.57906,0.57906 -0.57906,1.544159 -0.57906,2.219727 0,0.289531 0.09651,0.675569 0.19302,0.965099 0.09651,0.386039 0.28953,0.675569 0.38604,0.965098 0.09651,0.19302 0.289529,0.38604 0.482549,0.48255 -0.579063,-0.19302 -1.158122,-0.386039 -1.5441613,-0.675569 -0.8685888,-0.772079 -1.7371776,-2.123216 -1.8336874,-3.281335 -0.09651,-0.965098 0.7720788,-2.316237 2.0267067,-2.991806 1.061609,-0.579058 1.254629,-1.254627 1.447648,-2.412746 -0.289529,0.965098 -0.579059,1.737177 -1.6406673,2.219727 -1.447648,0.772079 -2.1232169,2.026706 -2.1232169,3.281334 0.09651,1.544159 0.6755689,2.605766 1.9301969,3.474356 0.2895293,0.193019 0.6755693,0.386039 1.0616083,0.579058 -1.5441573,-0.386039 -1.7371771,-0.579058 -2.2197265,-1.158118 0,0 -0.09651,-0.09651 -0.09651,-0.19302 C 7.8578276,20.612904 6.9892389,19.261767 6.6997093,18.007139 6.6031993,17.6211 6.5066897,17.13855 6.6031993,16.656001 c 0.5790592,-2.026707 1.8336871,-2.798785 2.9918054,-3.667375 0.28953,-0.193019 0.5790593,-0.386038 0.8685893,-0.579058 0.675569,-0.579059 0.868589,-1.930197 1.061608,-2.7022766 -0.289529,0.9650986 -0.579059,2.2197276 -1.158118,2.6057666 -0.09651,0.38604 -0.3860393,0.482549 -0.6755693,0.675568 -1.2546283,0.86859 -2.5092562,1.640668 -3.0883154,3.763885 -0.09651,0.579059 0,0.965098 0.09651,1.447648 0.2895296,1.254628 1.1581183,2.605765 1.930197,3.474355 l 0.096511,0.0965 c 0.2895294,0.386039 0.7720794,0.675568 1.2546284,0.868587 -0.386041,-0.0965 -0.8685901,-0.28952 -1.2546296,-0.482539 C 6.6997085,21.191965 5.3485706,19.068748 5.252061,17.428079 5.0590413,13.953725 6.6997085,12.988626 8.3403759,11.637489 9.2089647,10.96192 10.367083,10.57588 11.139162,9.3212523 c 0.09651,-0.2895296 0.19302,-0.8685886 0,-1.5441576 C 11.042652,7.584075 10.753123,6.8119963 10.656613,6.6189765 l 1.930197,0.8685886 c 0,0.8685888 -0.0965,1.6406675 0.0965,2.3162361 0.193019,0.7720788 1.158118,1.8336878 1.544156,2.9918058 0.675569,2.412746 0.48255,5.404552 -0.0965,7.817297 z"
   id="path4"
   style="fill:#ffffff;stroke-width:0.96509844"
   inkscape:connector-curvature="0" />
</svg>