<?xml version="1.0" encoding="UTF-8" standalone="no"?>
<svg
   xmlns:dc="http://purl.org/dc/elements/1.1/"
   xmlns:cc="http://creativecommons.org/ns#"
   xmlns:rdf="http://www.w3.org/1999/02/22-rdf-syntax-ns#"
   xmlns:svg="http://www.w3.org/2000/svg"
   xmlns="http://www.w3.org/2000/svg"
   xmlns:sodipodi="http://sodipodi.sourceforge.net/DTD/sodipodi-0.dtd"
   xmlns:inkscape="http://www.inkscape.org/namespaces/inkscape"
   id="Layer_1"
   data-name="Layer 1"
   viewBox="0 0 24 24"
   version="1.1"
   sodipodi:docname="Tor_Booting_up.svg"
   inkscape:export-filename="/home/sarah/AndroidStudioProjects/flutter_app/assets/core/Tor_Booting_up.png"
   inkscape:export-xdpi="128"
   inkscape:export-ydpi="128"
   inkscape:version="0.92.5 (2060ec1f9f, 2020-04-08)">
  <metadata
     id="metadata15">
    <rdf:RDF>
      <cc:Work
         rdf:about="">
        <dc:format>image/svg+xml</dc:format>
        <dc:type
           rdf:resource="http://purl.org/dc/dcmitype/StillImage" />
      </cc:Work>
    </rdf:RDF>
  </metadata>
  <sodipodi:namedview
     pagecolor="#ffffff"
     bordercolor="#666666"
     borderopacity="1"
     objecttolerance="10"
     gridtolerance="10"
     guidetolerance="10"
     inkscape:pageopacity="0"
     inkscape:pageshadow="2"
     inkscape:window-width="1920"
     inkscape:window-height="1015"
     id="namedview13"
     showgrid="false"
     inkscape:zoom="9.8333333"
     inkscape:cx="12"
     inkscape:cy="12"
     inkscape:window-x="0"
     inkscape:window-y="0"
     inkscape:window-maximized="1"
     inkscape:current-layer="Layer_1" />
  <defs
     id="defs4">
    <style
       id="style2">.cls-1{fill:#fff;}</style>
  </defs>
  <path
     d="M 13.599609 0 A 11.75 11.75 0 0 0 9.5996094 4.3007812 L 10.199219 1.8007812 A 15.31 15.31 0 0 0 8.4003906 6.6992188 L 7.0996094 6.1992188 L 6.9003906 6.3007812 C 8.1003906 8.4007813 7.5003906 9.5003906 6.9003906 9.9003906 A 27.17 27.17 0 0 0 3.1992188 12.599609 A 6.11 6.11 0 0 0 1.3007812 17.900391 A 6.52 6.52 0 0 0 6 23.599609 A 9.35 9.35 0 0 0 9.3007812 24 A 7.94 7.94 0 0 0 14.5 22.300781 A 6.5 6.5 0 0 0 15.039062 21.802734 A 5.9099998 5.9099998 0 0 1 12.130859 16.720703 A 5.9099998 5.9099998 0 0 1 14.443359 12.035156 A 12.71 12.71 0 0 0 12 10.400391 A 2.52 2.52 0 0 1 10.699219 7.5996094 L 9.8007812 7.1992188 A 31.86 31.86 0 0 1 15 1.0996094 A 8.94 8.94 0 0 0 10.599609 4.1992188 A 21.86 21.86 0 0 1 13.599609 0 z M 7.5 6.5996094 L 9.5 7.5 A 9.25 9.25 0 0 0 9.5996094 9.9003906 C 9.7996094 10.700391 10.799219 11.8 11.199219 13 A 17.07 17.07 0 0 1 11.050781 21.099609 A 4.15 4.15 0 0 1 10.349609 22.400391 A 6.89 6.89 0 0 0 10.650391 21.599609 A 9.73 9.73 0 0 0 11.150391 16.5 A 4.51 4.51 0 0 0 10.650391 14.800781 A 22.86 22.86 0 0 0 9.3496094 12.300781 A 11.08 11.08 0 0 1 9.046875 10.458984 A 16.15 16.15 0 0 0 9.3007812 12.5 A 20 20 0 0 1 10.5 15 A 6.33 6.33 0 0 1 10.900391 16.900391 A 11.43 11.43 0 0 1 10.5 21.199219 A 4.17 4.17 0 0 1 9.6992188 23 A 3.34 3.34 0 0 0 10.199219 21.800781 A 10.12 10.12 0 0 0 10.599609 18.900391 A 7 7 0 0 0 10 16.599609 A 7.62 7.62 0 0 0 9.3007812 15.300781 A 6.77 6.77 0 0 1 9 13.400391 A 4.12 4.12 0 0 0 9.1992188 15.400391 C 9.2992187 15.800391 9.8 16.300781 10 16.800781 A 9.25 9.25 0 0 1 10.400391 18.699219 A 9.68 9.68 0 0 1 10.099609 21.300781 A 3 3 0 0 1 9 23.199219 A 1.8 1.8 0 0 0 9.4003906 22.300781 C 9.5003906 21.800781 9.4996094 21.400781 9.5996094 20.800781 A 9.15 9.15 0 0 0 9.5 19.099609 C 9.3 18.299609 9.0003906 17.500391 8.9003906 16.900391 C 8.9003906 17.500391 9.2007813 18.299609 9.3007812 19.099609 A 9.63 9.63 0 0 1 9.3007812 20.800781 A 6.35 6.35 0 0 1 8.8007812 23.099609 A 0.82 0.82 0 0 1 8.3007812 22.599609 A 3.13 3.13 0 0 1 7.8007812 21.599609 L 7.5 20.699219 A 2.86 2.86 0 0 1 8.0996094 18.5 C 8.5996094 17.8 8.7007813 17.8 8.8007812 17 A 2.38 2.38 0 0 1 7.9003906 18.300781 A 3.22 3.22 0 0 0 7.3007812 20.599609 A 3.55 3.55 0 0 0 7.5 21.599609 A 10.37 10.37 0 0 0 7.9003906 22.599609 A 1.21 1.21 0 0 0 8.4003906 23.099609 A 5.93 5.93 0 0 1 6.8007812 22.400391 A 5.83 5.83 0 0 1 4.8496094 19 A 3.73 3.73 0 0 1 7 15.900391 A 2.82 2.82 0 0 0 8.5 13.400391 A 3.07 3.07 0 0 1 6.8007812 15.699219 A 3.84 3.84 0 0 0 4.5996094 19.099609 A 4.33 4.33 0 0 0 6.5996094 22.699219 A 10.91 10.91 0 0 0 7.6992188 23.300781 C 6.0992188 22.900781 5.9003906 22.699609 5.4003906 22.099609 A 0.35 0.35 0 0 1 5.3007812 21.900391 A 9.05 9.05 0 0 1 3.4003906 18.400391 A 3.21 3.21 0 0 1 3.2695312 17.568359 A 3.69 3.69 0 0 0 3.4003906 18.599609 A 9.07 9.07 0 0 0 5.4003906 22.199219 L 5.5 22.300781 A 3 3 0 0 0 6.8007812 23.199219 A 6.94 6.94 0 0 1 5.5 22.699219 A 6.43 6.43 0 0 1 1.9003906 17.800781 C 1.7003906 14.200781 3.3996094 13.200781 5.0996094 11.800781 C 5.9996094 11.100781 7.2 10.700391 8 9.4003906 A 2.8 2.8 0 0 0 8 7.8007812 C 7.9 7.6007812 7.6 6.7996094 7.5 6.5996094 z M 3.2695312 17.568359 A 3.69 3.69 0 0 1 3.3007812 17.099609 C 3.670436 15.744208 4.3056122 14.922679 5.0429688 14.279297 C 4.3231358 14.915632 3.6729236 15.697502 3.3007812 17 A 3.21 3.21 0 0 0 3.2695312 17.568359 z M 9.046875 10.458984 A 16.15 16.15 0 0 1 9 9.1992188 A 11.08 11.08 0 0 0 9.046875 10.458984 z M 8.4003906 9.8007812 C 8.1003906 10.800781 7.7992188 12.1 7.1992188 12.5 C 7.1755815 12.594549 7.139048 12.67002 7.0957031 12.736328 L 7.3007812 12.599609 C 8.0007812 11.999609 8.2003906 10.600781 8.4003906 9.8007812 z M 7.0957031 12.736328 L 6.4003906 13.199219 C 5.9621771 13.527879 5.5196759 13.864208 5.09375 14.234375 C 5.5390058 13.853163 6.0193685 13.531964 6.5 13.199219 C 6.7290881 13.046493 6.9556732 12.950545 7.0957031 12.736328 z "
     id="path6"
     style="fill:#ffffff" />
  <path
     d="M18,12.78A3.94,3.94,0,1,0,22,16.72,3.94,3.94,0,0,0,18,12.78Zm.4,5.91h-.79V17.9h.79Zm0-1.58h-.79V14.75h.79Z"
     id="path10"
     style="fill:#ffffff" />
</svg>
