<?xml version="1.0" encoding="UTF-8" standalone="no"?>
<svg
   xmlns:dc="http://purl.org/dc/elements/1.1/"
   xmlns:cc="http://creativecommons.org/ns#"
   xmlns:rdf="http://www.w3.org/1999/02/22-rdf-syntax-ns#"
   xmlns:svg="http://www.w3.org/2000/svg"
   xmlns="http://www.w3.org/2000/svg"
   xmlns:sodipodi="http://sodipodi.sourceforge.net/DTD/sodipodi-0.dtd"
   xmlns:inkscape="http://www.inkscape.org/namespaces/inkscape"
   id="Layer_1"
   data-name="Layer 1"
   viewBox="0 0 24 24"
   version="1.1"
   sodipodi:docname="Tor_OFF.svg"
   inkscape:export-filename="/home/sarah/AndroidStudioProjects/flutter_app/assets/core/Tor_OFF.png"
   inkscape:export-xdpi="128"
   inkscape:export-ydpi="128"
   inkscape:version="0.92.5 (2060ec1f9f, 2020-04-08)">
  <metadata
     id="metadata15">
    <rdf:RDF>
      <cc:Work
         rdf:about="">
        <dc:format>image/svg+xml</dc:format>
        <dc:type
           rdf:resource="http://purl.org/dc/dcmitype/StillImage" />
      </cc:Work>
    </rdf:RDF>
  </metadata>
  <sodipodi:namedview
     pagecolor="#ffffff"
     bordercolor="#666666"
     borderopacity="1"
     objecttolerance="10"
     gridtolerance="10"
     guidetolerance="10"
     inkscape:pageopacity="0"
     inkscape:pageshadow="2"
     inkscape:window-width="1920"
     inkscape:window-height="1015"
     id="namedview13"
     showgrid="false"
     inkscape:zoom="9.8333333"
     inkscape:cx="39.915254"
     inkscape:cy="13.728814"
     inkscape:window-x="0"
     inkscape:window-y="0"
     inkscape:window-maximized="1"
     inkscape:current-layer="Layer_1" />
  <defs
     id="defs4">
    <style
       id="style2">.cls-1{fill:#fff;}</style>
  </defs>
  <path
     style="fill:#ffffff"
     d="M 13.720703 0 A 11.75 11.75 0 0 0 9.7207031 4.3007812 L 10.320312 1.8007812 A 15.31 15.31 0 0 0 8.5195312 6.6992188 L 7.2207031 6.1992188 L 7 6.3007812 C 8.2 8.4007813 7.6 9.5003906 7 9.9003906 A 27.17 27.17 0 0 0 3.3007812 12.599609 A 6.11 6.11 0 0 0 1.4003906 17.900391 A 6.52 6.52 0 0 0 6.0996094 23.599609 A 9.35 9.35 0 0 0 9.4003906 24 A 7.94 7.94 0 0 0 14.599609 22.300781 A 6.5 6.5 0 0 0 15.105469 21.839844 A 5.9099998 5.9099998 0 0 1 12.119141 16.710938 A 5.9099998 5.9099998 0 0 1 14.519531 11.962891 A 12.71 12.71 0 0 0 12.119141 10.400391 A 2.52 2.52 0 0 1 10.820312 7.5996094 L 9.9199219 7.1992188 A 31.86 31.86 0 0 1 15.119141 1.0996094 A 8.94 8.94 0 0 0 10.720703 4.1992188 A 21.86 21.86 0 0 1 13.720703 0 z M 7.5996094 6.5996094 L 9.5996094 7.5 A 9.25 9.25 0 0 0 9.6992188 9.9003906 C 9.8992187 10.700391 10.900781 11.8 11.300781 13 A 17.07 17.07 0 0 1 11.220703 21.099609 A 4.15 4.15 0 0 1 10.519531 22.400391 A 6.89 6.89 0 0 0 10.820312 21.599609 A 9.73 9.73 0 0 0 11.320312 16.5 A 4.51 4.51 0 0 0 10.820312 14.800781 A 22.86 22.86 0 0 0 9.5195312 12.300781 A 11.08 11.08 0 0 1 9.1582031 10.220703 A 16.15 16.15 0 0 0 9.4199219 12.5 A 20 20 0 0 1 10.619141 15 A 6.33 6.33 0 0 1 11.019531 16.900391 A 11.43 11.43 0 0 1 10.619141 21.199219 A 4.17 4.17 0 0 1 9.8203125 23 A 3.34 3.34 0 0 0 10.320312 21.800781 A 10.12 10.12 0 0 0 10.720703 18.900391 A 7 7 0 0 0 10.119141 16.599609 A 7.62 7.62 0 0 0 9.4199219 15.300781 A 6.77 6.77 0 0 1 9.1191406 13.400391 A 4.12 4.12 0 0 0 9.3203125 15.400391 C 9.4203125 15.800391 9.9191406 16.300781 10.119141 16.800781 A 9.25 9.25 0 0 1 10.519531 18.699219 A 9.68 9.68 0 0 1 10.220703 21.300781 A 3 3 0 0 1 9.1191406 23.199219 A 1.8 1.8 0 0 0 9.5195312 22.300781 C 9.6195312 21.800781 9.6207031 21.400781 9.7207031 20.800781 A 9.15 9.15 0 0 0 9.6191406 19.099609 C 9.4191406 18.299609 9.1195313 17.500391 9.0195312 16.900391 C 9.0195312 17.500391 9.3199219 18.299609 9.4199219 19.099609 A 9.63 9.63 0 0 1 9.4199219 20.800781 A 6.35 6.35 0 0 1 8.9199219 23.099609 A 0.82 0.82 0 0 1 8.4199219 22.599609 A 3.13 3.13 0 0 1 7.9199219 21.599609 L 7.6191406 20.699219 A 2.86 2.86 0 0 1 8.2207031 18.5 C 8.7207031 17.8 8.8199219 17.8 8.9199219 17 A 2.38 2.38 0 0 1 8 18.300781 A 3.22 3.22 0 0 0 7.4003906 20.599609 A 3.55 3.55 0 0 0 7.5996094 21.599609 A 10.37 10.37 0 0 0 8 22.599609 A 1.21 1.21 0 0 0 8.5 23.099609 A 5.93 5.93 0 0 1 6.9003906 22.400391 A 5.83 5.83 0 0 1 5 19 A 3.73 3.73 0 0 1 7.0996094 15.900391 A 2.82 2.82 0 0 0 8.5996094 13.400391 A 3.07 3.07 0 0 1 6.9003906 15.699219 A 3.84 3.84 0 0 0 4.6992188 19.099609 A 4.33 4.33 0 0 0 6.6992188 22.699219 A 10.91 10.91 0 0 0 7.8007812 23.300781 C 6.2007813 22.900781 6 22.699609 5.5 22.099609 A 0.35 0.35 0 0 1 5.4003906 21.900391 A 9.05 9.05 0 0 1 3.5 18.400391 A 3.21 3.21 0 0 1 3.3671875 17.519531 A 3.69 3.69 0 0 0 3.5 18.599609 A 9.07 9.07 0 0 0 5.5 22.199219 L 5.5996094 22.300781 A 3 3 0 0 0 6.9003906 23.199219 A 6.94 6.94 0 0 1 5.5996094 22.699219 A 6.43 6.43 0 0 1 2 17.800781 C 1.8 14.200781 3.4992187 13.200781 5.1992188 11.800781 C 6.0992188 11.100781 7.2996094 10.700391 8.0996094 9.4003906 A 2.8 2.8 0 0 0 8.0996094 7.8007812 C 7.9996094 7.6007812 7.6996094 6.7996094 7.5996094 6.5996094 z M 3.3671875 17.519531 A 3.69 3.69 0 0 1 3.4003906 17.099609 C 3.7705556 15.742338 4.4078285 14.921115 5.1464844 14.277344 C 4.4253691 14.914124 3.7730774 15.695596 3.4003906 17 A 3.21 3.21 0 0 0 3.3671875 17.519531 z M 9.1582031 10.220703 A 16.15 16.15 0 0 1 9.1191406 9.1992188 A 11.08 11.08 0 0 0 9.1582031 10.220703 z M 8.5 9.8007812 C 8.2 10.800781 7.9007813 12.1 7.3007812 12.5 C 7.2773796 12.593607 7.2419627 12.6685 7.1992188 12.734375 L 7.4003906 12.599609 C 8.1003906 11.999609 8.3 10.600781 8.5 9.8007812 z M 7.1992188 12.734375 L 6.5 13.199219 C 6.0617865 13.527879 5.6192853 13.864208 5.1933594 14.234375 C 5.6386289 13.853145 6.1189603 13.531976 6.5996094 13.199219 C 6.8294045 13.046022 7.0593089 12.949996 7.1992188 12.734375 z "
     id="path6" />
  <path
     d="M18.15,12.88a3.95,3.95,0,1,0,3.94,3.95A3.94,3.94,0,0,0,18.15,12.88Zm2,5.36-.56.56-1.41-1.42L16.73,18.8l-.55-.56,1.41-1.41-1.41-1.42.55-.56,1.42,1.42,1.41-1.42.56.56L18.7,16.83Z"
     id="path10"
     style="fill:#ffffff" />
</svg>
